<svg width="285" height="252" viewBox="0 0 285 252" fill="none" xmlns="http://www.w3.org/2000/svg">
<g clip-path="url(#clip0_647_7462)">
<path d="M220.066 169.315C205.584 184.859 184.422 190.998 165.79 186.477C154.192 183.653 143.72 177.137 133.552 170.462C123.392 163.78 113.225 156.813 101.911 152.955C90.577 149.103 77.7586 148.633 66.7298 154.758C63.1772 156.726 60.1417 159.312 57.57 162.374C45.3349 176.878 22.6078 170.654 19.042 153.094C14.2898 129.535 23.3568 110.715 36.4668 90.6892C49.1526 71.3195 63.6478 53.0768 81.1919 39.64C98.736 26.2363 119.614 17.8839 140.008 19.6406C156.021 21.0128 171.02 28.5034 183.924 38.8445C196.809 49.1856 207.772 62.3241 218.058 75.9598C225.316 85.5717 232.434 95.7868 235.761 108.083C241.382 128.911 234.555 153.77 220.066 169.315Z" fill="#F8F7FC"/>
<path d="M187.179 18.416H86.6732V148.654H187.179V18.416Z" fill="#C6AEFF"/>
<path d="M188.425 21.5307V145.027C188.425 147.745 186.218 149.953 183.5 149.953H90.3517C87.6342 149.953 85.4271 147.745 85.4271 145.027V21.5307C85.4271 18.8129 87.6342 16.6055 90.3517 16.6055H183.5C186.218 16.6055 188.425 18.8063 188.425 21.5307Z" fill="#497BFE"/>
<path d="M89.8413 141.627V24.9247C89.8413 22.7637 91.5911 21.0137 93.7518 21.0137H180.107C182.267 21.0137 184.017 22.7637 184.017 24.9247V141.627C184.017 143.788 182.267 145.538 180.107 145.538H93.7451C91.5911 145.538 89.8413 143.788 89.8413 141.627Z" fill="white"/>
<path d="M113.019 84.8105V96.2056C113.019 97.0674 112.317 97.77 111.455 97.77H99.306C98.4443 97.77 97.7418 97.0674 97.7418 96.2056V84.8105C97.7418 83.9488 98.4443 83.2461 99.306 83.2461H111.455C112.317 83.2461 113.019 83.9488 113.019 84.8105Z" fill="#FFD375"/>
<path d="M177.648 88.0065C177.648 88.6694 177.111 89.2063 176.448 89.2063H122.908C122.245 89.2063 121.708 88.6694 121.708 88.0065C121.708 87.3436 122.245 86.8066 122.908 86.8066H176.448C177.111 86.8066 177.648 87.3436 177.648 88.0065Z" fill="#F3F1FC"/>
<path d="M146.331 91.8184H122.908C122.245 91.8184 121.708 92.3553 121.708 93.0182C121.708 93.6811 122.245 94.218 122.908 94.218H146.331C146.994 94.218 147.531 93.6811 147.531 93.0182C147.531 92.3553 146.994 91.8184 146.331 91.8184Z" fill="#F3F1FC"/>
<path d="M155.113 93.0182C155.113 93.6811 155.65 94.218 156.313 94.218H164.591C165.254 94.218 165.79 93.6811 165.79 93.0182C165.79 92.3553 165.254 91.8184 164.591 91.8184H156.313C155.65 91.8184 155.113 92.3553 155.113 93.0182Z" fill="#F3F1FC"/>
<path d="M113.019 107.057V118.452C113.019 119.313 112.317 120.016 111.455 120.016H99.306C98.4443 120.016 97.7418 119.313 97.7418 118.452V107.057C97.7418 106.195 98.4443 105.492 99.306 105.492H111.455C112.317 105.492 113.019 106.195 113.019 107.057Z" fill="#8EB6FF"/>
<path d="M177.648 110.253C177.648 110.915 177.111 111.452 176.448 111.452H122.908C122.245 111.452 121.708 110.915 121.708 110.253C121.708 109.59 122.245 109.053 122.908 109.053H176.448C177.111 109.053 177.648 109.59 177.648 110.253Z" fill="#F3F1FC"/>
<path d="M146.331 114.064H122.908C122.245 114.064 121.708 114.601 121.708 115.264C121.708 115.927 122.245 116.464 122.908 116.464H146.331C146.994 116.464 147.531 115.927 147.531 115.264C147.531 114.601 146.994 114.064 146.331 114.064Z" fill="#F3F1FC"/>
<path d="M155.113 115.264C155.113 115.927 155.65 116.464 156.313 116.464H164.591C165.254 116.464 165.79 115.927 165.79 115.264C165.79 114.601 165.254 114.064 164.591 114.064H156.313C155.65 114.064 155.113 114.601 155.113 115.264Z" fill="#F3F1FC"/>
<path d="M113.019 38.9453V50.3404C113.019 51.2021 112.317 51.9048 111.455 51.9048H99.306C98.4443 51.9048 97.7418 51.2021 97.7418 50.3404V38.9453C97.7418 38.0835 98.4443 37.3809 99.306 37.3809H111.455C112.317 37.3809 113.019 38.0769 113.019 38.9453Z" fill="#6EB854"/>
<path d="M167.858 42.1334C167.858 42.7963 167.322 43.3333 166.659 43.3333H122.908C122.245 43.3333 121.708 42.7963 121.708 42.1334C121.708 41.4705 122.245 40.9336 122.908 40.9336H166.659C167.322 40.9402 167.858 41.4772 167.858 42.1334Z" fill="#F3F1FC"/>
<path d="M136.542 45.9512H122.908C122.245 45.9512 121.708 46.4881 121.708 47.151C121.708 47.8139 122.245 48.3508 122.908 48.3508H136.542C137.204 48.3508 137.741 47.8139 137.741 47.151C137.741 46.4881 137.204 45.9512 136.542 45.9512Z" fill="#F3F1FC"/>
<path d="M145.323 47.1451C145.323 47.808 145.86 48.345 146.523 48.345H154.801C155.464 48.345 156.001 47.808 156.001 47.1451C156.001 46.4823 155.464 45.9453 154.801 45.9453H146.523C145.854 45.9519 145.323 46.4889 145.323 47.1451Z" fill="#F3F1FC"/>
<path d="M113.019 61.1914V72.5865C113.019 73.4482 112.317 74.1509 111.455 74.1509H99.306C98.4443 74.1509 97.7418 73.4482 97.7418 72.5865V61.1914C97.7418 60.3296 98.4443 59.627 99.306 59.627H111.455C112.317 59.627 113.019 60.323 113.019 61.1914Z" fill="#F45170"/>
<path d="M167.858 64.3795C167.858 65.0424 167.322 65.5794 166.659 65.5794H122.908C122.245 65.5794 121.708 65.0424 121.708 64.3795C121.708 63.7166 122.245 63.1797 122.908 63.1797H166.659C167.322 63.1863 167.858 63.7233 167.858 64.3795Z" fill="#F3F1FC"/>
<path d="M136.542 68.1973H122.908C122.245 68.1973 121.708 68.7342 121.708 69.3971C121.708 70.06 122.245 70.5969 122.908 70.5969H136.542C137.204 70.5969 137.741 70.06 137.741 69.3971C137.741 68.7342 137.204 68.1973 136.542 68.1973Z" fill="#F3F1FC"/>
<path d="M145.323 69.3912C145.323 70.0541 145.86 70.5911 146.523 70.5911H154.801C155.464 70.5911 156.001 70.0541 156.001 69.3912C156.001 68.7284 155.464 68.1914 154.801 68.1914H146.523C145.854 68.198 145.323 68.735 145.323 69.3912Z" fill="#F3F1FC"/>
<path d="M104.714 47.0462C104.469 47.0462 104.224 46.9335 104.058 46.7214L102.733 44.9846C102.461 44.6266 102.527 44.1096 102.892 43.8312C103.256 43.5528 103.767 43.6257 104.045 43.9903L104.887 45.0907L107.889 42.9296C108.26 42.6645 108.771 42.7507 109.036 43.1153C109.301 43.4865 109.215 43.9969 108.85 44.2621L105.198 46.8937C105.052 46.9998 104.88 47.0462 104.714 47.0462Z" fill="white"/>
<path d="M104.714 68.0521C104.469 68.0521 104.224 67.9394 104.058 67.7272L102.733 65.9905C102.461 65.6325 102.527 65.1155 102.892 64.837C103.256 64.5586 103.767 64.6315 104.045 64.9961L104.887 66.0965L107.889 63.9355C108.26 63.6704 108.771 63.7565 109.036 64.1211C109.301 64.4923 109.215 65.0028 108.85 65.2679L105.198 67.8996C105.052 68.0057 104.88 68.0521 104.714 68.0521Z" fill="white"/>
<path d="M104.714 92.222C104.469 92.222 104.224 92.1093 104.058 91.8972L102.733 90.1604C102.461 89.8024 102.527 89.2854 102.892 89.007C103.256 88.7285 103.767 88.8015 104.045 89.1661L104.887 90.2664L107.889 88.1054C108.26 87.8403 108.771 87.9265 109.036 88.291C109.301 88.6623 109.215 89.1727 108.85 89.4378L105.198 92.0695C105.052 92.1756 104.88 92.222 104.714 92.222Z" fill="white"/>
<path d="M104.714 114.892C104.469 114.892 104.224 114.779 104.058 114.567L102.733 112.83C102.461 112.472 102.527 111.955 102.892 111.677C103.256 111.398 103.767 111.471 104.045 111.836L104.887 112.936L107.889 110.775C108.26 110.51 108.771 110.596 109.036 110.961C109.301 111.332 109.215 111.843 108.85 112.108L105.198 114.739C105.052 114.846 104.88 114.892 104.714 114.892Z" fill="white"/>
<path d="M156.849 129.349V136.873C156.849 137.801 156.101 138.55 155.173 138.55H119.15C118.222 138.55 117.473 137.801 117.473 136.873V129.349C117.473 128.421 118.222 127.672 119.15 127.672H155.173C156.101 127.672 156.849 128.421 156.849 129.349Z" fill="#F3F1FC"/>
<path d="M24.8215 245.648C23.3037 242.711 20.1223 243.533 16.2251 243.533C14.1638 243.533 13.5872 242.101 13.4944 240.755L6.06449 240.49C4.79193 242.558 4.14902 246.648 4.1689 249.207C4.17553 250.447 5.1896 251.441 6.42902 251.441H22.6077C23.4561 251.441 24.2316 250.964 24.6226 250.208C25.1993 249.101 25.7229 247.391 24.8215 245.648Z" fill="#BF7D5A"/>
<path d="M25.2324 248.393C25.1197 249.089 24.8811 249.712 24.616 250.209C24.225 250.965 23.4495 251.442 22.6011 251.442H6.42241C5.18299 251.442 4.16892 250.448 4.16229 249.208C4.16229 248.956 4.16892 248.671 4.18218 248.393H25.2324Z" fill="#8A4852"/>
<path d="M66.3586 245.648C64.8408 242.711 61.6594 243.533 57.7622 243.533C55.7009 243.533 55.1243 242.101 55.0315 240.755L47.6016 240.49C46.329 242.558 45.6861 246.648 45.706 249.207C45.7126 250.447 46.7267 251.441 47.9661 251.441H64.1449C64.9932 251.441 65.7687 250.964 66.1597 250.208C66.7364 249.101 67.26 247.391 66.3586 245.648Z" fill="#BF7D5A"/>
<path d="M66.7761 248.393C66.6634 249.089 66.4248 249.712 66.1597 250.209C65.7687 250.965 64.9932 251.442 64.1448 251.442H47.9661C46.7267 251.442 45.7126 250.448 45.706 249.208C45.706 248.956 45.7126 248.671 45.7259 248.393H66.7761Z" fill="#8A4852"/>
<path d="M44.619 240.272C41.4509 222.022 34.0807 204.184 29.799 183.071C27.1479 196.295 20.9972 223.434 17.7694 237.408C17.544 238.329 17.3518 239.231 17.1662 240.073C16.6625 242.386 9.96171 243.082 6.2302 242.141C4.65939 241.75 3.59892 241.054 3.75137 240.073C6.50195 222.022 6.62788 176.561 6.62788 176.561C6.64113 176.369 3.46637 143.549 9.8159 132.459H32.3906C32.3906 132.459 32.3906 132.558 32.3906 132.764C33.1992 132.744 28.5265 132.85 46.1501 132.459C46.2296 132.83 46.4483 133.533 47.5751 139.174C49.1525 147.241 51.5386 161.494 51.9296 175.911C52.5261 197.833 53.2618 217.196 57.9875 239.92C58.7166 243.341 45.2089 243.705 44.619 240.272Z" fill="#8A4852"/>
<path d="M47.0448 136.516C38.7268 141.415 26.2332 132.618 8.0595 136.92C8.05287 136.92 8.05287 136.92 8.03961 136.92C8.52345 135.21 9.10671 133.699 9.81589 132.459H32.3905C32.3905 132.459 32.3905 132.558 32.3905 132.764C33.1991 132.744 28.5265 132.85 46.1501 132.459C46.1501 132.459 46.1766 132.598 46.2429 132.843C46.5676 134.236 46.8328 135.462 47.0448 136.516Z" fill="#51383C"/>
<path d="M35.4328 202.255C32.8943 195.036 30.7203 188.182 29.8455 182.607C29.8455 182.607 33.3052 163.297 33.3119 150.158L35.4328 202.255Z" fill="#51383C"/>
<path d="M17.7694 237.414C17.544 238.335 17.3518 239.237 17.1662 240.079C16.6625 242.392 9.96171 243.088 6.2302 242.147C4.65939 241.756 3.59892 241.06 3.75137 240.079C6.50195 222.028 6.62788 176.567 6.62788 176.567C6.62788 176.567 3.52602 143.522 9.8159 132.465H10.7637C11.2475 134.904 11.1282 135.123 11.4331 156.09C11.7645 179.987 12.1025 189.752 11.1349 200.04C10.4853 207 9.21276 218.985 7.33044 225.714C6.72067 227.908 6.03799 230.155 6.26334 232.422C6.48206 234.696 7.8673 237.016 10.081 237.573C11.8175 238.017 13.6203 237.301 15.4032 237.109C16.1721 237.029 17.0337 237.129 17.7694 237.414Z" fill="#51383C"/>
<path d="M88.0849 73.6738C88.0849 73.6738 90.6764 75.1852 87.9059 76.3784C87.9059 76.3784 90.1462 77.6644 87.6342 78.8709C87.6342 78.8709 88.8802 80.4486 86.693 81.317C85.7187 81.7081 85.036 82.0594 84.2738 82.3643H84.2672C83.5249 82.6427 82.7229 82.8681 81.4967 83.014C80.8074 83.1001 80.2043 83.5045 79.8862 84.121C77.6526 88.5027 68.5524 105.804 63.2899 106.971C57.2585 108.317 50.0407 96.6629 50.0407 96.6629C50.9885 95.9403 46.6074 99.2813 59.3065 89.5965L62.0438 94.018C62.4282 91.9431 66.4116 88.8806 68.8838 87.5415C71.356 86.2091 74.8556 78.0423 74.8556 78.0423C74.8556 78.0423 86.0103 70.1141 90.292 68.9408C92.0749 68.8148 92.4129 70.3395 88.0849 73.6738Z" fill="#F6A285"/>
<path d="M84.2672 82.3573C83.5249 82.6357 82.7229 82.8611 81.4968 83.0069C80.8075 83.0931 80.2043 83.4974 79.8862 84.1139C77.6526 88.4956 68.5525 105.797 63.2899 106.964C57.2585 108.309 50.0407 96.6558 50.0407 96.6558L57.6429 90.8622C58.1135 91.1803 58.5576 91.5516 58.942 91.9957C60.1549 93.3679 60.6785 95.4891 59.7506 97.0602C59.0149 98.2865 57.4905 99.1616 57.4838 100.593C57.4772 102.025 59.0149 102.907 60.3272 103.477C61.5932 104.021 63.1905 104.524 64.2244 103.616C65.3777 102.602 64.8475 100.739 65.0993 99.2146C65.3909 97.3651 66.9154 95.973 68.4597 94.9257C70.0172 93.8717 71.7339 92.9569 72.8341 91.4389C74.564 89.0591 74.4115 85.632 76.3005 83.3781C77.3079 82.1717 78.8588 81.4425 80.4297 81.4093C81.8215 81.3762 82.9748 82.0789 84.2672 82.3573Z" fill="url(#paint0_linear_647_7462)"/>
<path d="M0 100.939H4.85826V102.457L9.99488 102.563C9.99488 102.563 8.11256 122.523 7.21116 132.838C6.75384 138.055 43.7243 140.991 48.2578 131.91C51.2138 125.904 48.7483 103.704 47.8535 97.0615C47.986 97.2736 48.5362 98.4867 50.0473 99.428C50.3456 99.6136 50.624 99.7263 50.8824 99.7396C54.4615 99.786 62.3355 93.3825 61.2485 90.121C61.1027 89.6636 60.937 89.2062 60.7646 88.7356C58.5973 83.2468 54.9255 78.3945 50.2594 75.206C45.8187 72.1898 37.4477 70.1614 32.0791 69.9095C30.1437 69.8034 21.3352 69.2002 19.0884 69.936C18.7901 69.936 17.0337 70.5061 16.5897 70.6784C9.94186 73.1245 4.28163 78.0166 3.23442 80.1047C2.71081 80.993 2.25349 82.7696 1.84919 84.9439C0.848372 90.2337 0.225349 97.857 0 100.939Z" fill="#C5ADFF"/>
<path d="M40.755 78.918C42.1402 83.704 45.5006 92.7392 47.9198 97.0944C41.5371 88.5233 40.755 78.918 40.755 78.918Z" fill="#976FF8"/>
<path d="M50.8692 99.7388C50.6306 99.7321 50.3456 99.6195 50.0407 99.4272C52.0092 95.9934 56.7548 95.7084 59.3397 92.8646C59.9892 92.1553 60.4797 91.2803 60.6586 90.339C60.7315 89.9413 60.6255 89.2386 60.758 88.748C60.9436 89.2121 61.1027 89.6761 61.2419 90.1269C62.309 93.4612 54.4151 99.7918 50.8692 99.7388Z" fill="#976FF8"/>
<path d="M49.2122 128.483C48.9935 129.894 48.682 131.068 48.2644 131.91C43.7309 140.991 6.76047 138.055 7.21779 132.838C8.11919 122.523 9.99488 102.57 9.99488 102.57L4.85826 102.444V100.933H0C0.225349 97.8437 0.848372 90.2138 1.83593 84.9372C4.32802 83.817 7.54256 83.459 9.94849 84.7715C12.5864 86.2034 12.9973 89.6504 14.0247 92.2091C15.2906 95.3645 15.5358 98.8513 15.3436 102.212C14.8465 110.638 11.9103 117.903 15.6883 129.484C16.3709 131.631 17.2524 132.725 21.2822 132.36C25.7362 131.949 31.8206 134.601 34.6507 131.134C36.3077 129.092 31.3898 124.459 33.7493 123.259C34.9821 122.636 35.4924 125.4 36.2812 126.54C37.0633 127.68 37.9647 128.801 39.1842 129.457C40.4037 130.113 42.0209 130.199 43.1013 129.338C44.1883 128.476 42.2396 126.732 43.2206 125.758C43.7508 125.241 47.0847 126.918 49.2122 128.483Z" fill="#976FF8"/>
<path d="M61.1491 90.3918C58.9155 84.976 55.5419 80.6871 50.962 77.5715C48.0656 75.6027 43.6514 74.1245 39.5487 73.2362C33.3052 71.9237 24.5763 71.8375 21.892 72.0165C20.3808 72.1159 19.2541 72.3214 17.2856 73.0373C12.6792 74.7277 6.63453 78.4863 4.0364 82.2979C3.4664 83.1332 2.9693 84.9893 2.53849 87.3094C1.86244 90.9487 1.23942 96.9743 0.881512 100.945H0C0.25186 97.5113 1.39849 82.815 3.33384 79.938C5.9386 76.1264 11.9833 72.3745 16.583 70.6775C16.9807 70.5382 18.7437 69.9549 19.0088 69.9549C21.607 69.2191 29.5605 69.7825 32.0658 69.9151C37.3284 70.1803 45.7657 72.1623 50.2528 75.2183C55.3165 78.6719 59.4126 84.1076 61.0496 89.7422C61.1159 89.9477 61.1491 90.1598 61.1491 90.3918Z" fill="#976FF8"/>
<path d="M19.7048 69.8222L19.844 70.0609C24.2118 77.6775 27.698 81.0649 31.1711 81.0649C34.9092 81.0649 37.1494 77.5913 37.8652 70.6774C35.9564 70.326 34.0674 70.0078 32.0857 69.9084C29.0236 69.7493 22.9922 69.2985 19.7048 69.8222Z" fill="#976FF8"/>
<path d="M44.7517 44.0614C44.7517 44.0614 45.8784 46.3219 43.1411 49.232L39.8868 43.2461L44.7517 44.0614Z" fill="#894852"/>
<path d="M22.4156 69.5232V54.5684H35.1743V70.8224C33.3649 79.6521 29.6798 81.316 22.4156 69.5232Z" fill="#F6A285"/>
<path d="M43.1079 56.9819C42.6904 61.536 41.3582 65.9376 37.9249 66.7596C34.3922 67.6081 26.0941 63.7169 23.9599 62.1193C22.9724 61.3769 22.4156 60.8863 22.4156 60.8863V57.552C22.4156 57.552 20.8315 55.7556 20.235 53.8266C19.7379 52.2555 19.9036 50.5983 22.1041 49.7697L22.9591 42.5044C31.5687 42.1332 39.8072 41.8017 42.8296 45.8387C42.8296 45.9448 43.5918 51.8578 43.1079 56.9819Z" fill="url(#paint1_linear_647_7462)"/>
<path d="M46.9985 40.6079C46.4881 43.1534 44.2081 45.4669 44.2081 45.4669C40.9737 48.4897 39.4228 43.9622 32.4569 44.8372C31.4693 44.9565 30.7999 45.4404 30.7535 46.8789C30.6607 49.4907 29.1429 49.9215 27.7709 50.5049C26.399 51.0949 28.1819 55.4832 26.8894 55.9273C26.2001 56.166 25.3252 53.4813 25.3252 53.4813C25.3252 53.4813 24.2714 49.1658 21.8986 49.895C19.8174 50.5513 20.5465 54.3298 21.6799 56.5836C21.607 56.4775 20.4471 54.7474 19.2938 52.4273C19.1149 52.0759 18.9426 51.7113 18.7769 51.3335C18.2069 50.1138 17.6899 48.7681 17.3452 47.449C17.2259 46.9982 17.1265 46.5541 17.0536 46.1099C16.6957 43.9887 16.994 41.6818 19.433 41.0057C19.4264 40.9924 19.4264 40.9791 19.4264 40.9659C19.4198 40.9725 19.4198 40.9659 19.4198 40.9659C18.3129 37.0084 21.5805 35.4307 21.5805 35.4307C28.3144 32.7195 31.3301 38.7518 34.2398 38.4867C37.156 38.2215 40.5098 32.9515 45.262 36.319C46.9985 37.5454 47.3034 39.1164 46.9985 40.6079Z" fill="#894852"/>
<path d="M37.905 58.0086C37.8387 57.9688 37.7725 58.0484 37.7923 58.1345C37.9315 58.645 38.19 59.1024 38.5413 59.3874C38.939 59.7188 39.4957 59.8581 39.8934 59.5598C40.3706 59.2084 40.7153 58.4792 40.4236 58.3003C40.2115 58.1743 39.8603 58.8173 39.5951 58.8438C38.5214 58.9433 38.1569 58.1677 37.905 58.0086Z" fill="#E17659"/>
<path d="M23.8936 53.7858C23.7478 53.1825 23.4959 52.692 23.1447 52.3274C22.7271 51.8965 22.1571 51.6645 21.6202 51.7109C21.3551 51.7308 21.0768 51.817 20.7984 51.9695C20.7454 52.0026 20.7255 52.0689 20.752 52.1219C20.7851 52.1749 20.8514 52.1948 20.9044 52.1683C21.1497 52.0357 21.3949 51.9562 21.6335 51.9363C22.0975 51.8965 22.6012 52.102 22.9723 52.4865C23.2905 52.8113 23.5158 53.2555 23.6484 53.799C23.5158 53.693 23.3634 53.6134 23.1911 53.5869C22.7536 53.5206 22.0378 53.7526 22.1637 54.21C22.177 54.2697 22.2366 54.3028 22.2963 54.2896H22.3029C22.3626 54.2697 22.3957 54.21 22.3825 54.1504C22.3162 53.9051 22.8928 53.7725 23.1579 53.8123C23.3766 53.8454 23.5821 53.978 23.6948 54.1636C23.7014 54.1703 23.708 54.1636 23.7147 54.1703C23.7809 54.568 23.8141 54.979 23.8273 55.3966C23.8273 55.4563 23.8804 55.5093 23.9466 55.5093C23.9533 55.5093 23.9599 55.5093 23.9665 55.5093C24.0195 55.496 24.0593 55.4496 24.0527 55.3966" fill="#E17659"/>
<path d="M34.8893 54.396C34.8893 54.7871 35.2074 55.0987 35.5985 55.0987C35.9829 55.0987 36.301 54.7871 36.301 54.396C36.301 54.0049 35.9829 53.6934 35.5985 53.6934C35.2074 53.6934 34.8893 54.0049 34.8893 54.396Z" fill="#111D33"/>
<path d="M37.0235 54.2643C37.0168 54.2709 37.0036 54.2775 36.997 54.2775C36.5463 54.1449 36.1154 54.0124 35.678 53.8732C35.1279 54.1913 34.5579 54.6885 33.5836 54.7548C33.5703 54.7548 33.5571 54.7482 33.5571 54.7283C33.5571 54.7216 33.5571 54.715 33.5637 54.715C34.1933 53.966 34.9357 53.8201 35.5786 53.5417L35.5985 53.5351C35.7111 53.4953 35.6647 53.4953 37.0301 54.2311C37.0235 54.2377 37.0301 54.251 37.0235 54.2643Z" fill="#111D33"/>
<path d="M41.2322 54.3023C41.2322 54.6934 41.5503 55.0049 41.9414 55.0049C42.3258 55.0049 42.6439 54.6934 42.6439 54.3023C42.6439 53.9112 42.3258 53.5996 41.9414 53.5996C41.5503 53.5996 41.2322 53.9112 41.2322 54.3023Z" fill="#111D33"/>
<path d="M42.3059 54.4818C42.5512 54.4818 42.5512 54.1172 42.3059 54.1172C42.2065 54.1172 42.0607 54.4818 42.3059 54.4818Z" fill="#FBFBFB"/>
<path d="M35.9033 54.4818C36.1486 54.4818 36.1486 54.1172 35.9033 54.1172C35.6581 54.1172 35.6581 54.4818 35.9033 54.4818Z" fill="#FBFBFB"/>
<path d="M43.3399 54.1837C42.8693 54.0445 42.3921 53.912 41.9281 53.7529L42.0673 53.7462C41.4443 54.1042 40.9008 54.6014 39.9199 54.661C39.9066 54.661 39.8934 54.6478 39.8934 54.6345C39.8934 54.6279 39.8934 54.6213 39.9 54.6146C40.1717 54.2964 40.4965 54.0711 40.8345 53.8788C41.1858 53.7131 41.5636 53.5938 41.9149 53.4413L41.9348 53.4347C42.0474 53.3883 42.1336 53.4678 43.3598 54.1307C43.3863 54.1506 43.3664 54.1904 43.3399 54.1837Z" fill="#111D33"/>
<path d="M37.4278 50.4589C38.6142 51.029 37.9978 52.368 36.9042 52.01C36.4667 51.8642 34.9755 50.7506 33.1395 51.8244C32.954 51.9305 32.775 52.0565 32.5695 52.0962C32.3707 52.136 32.1321 52.0565 32.0327 51.8377C31.8405 51.4333 32.3707 51.1019 32.5894 50.9295C33.4113 50.2799 35.8238 49.6833 37.4278 50.4589Z" fill="#111D33"/>
<path d="M42.9555 50.5042C41.9746 50.2258 40.9207 50.1197 39.9796 50.5705C39.0053 51.0345 39.509 52.1349 40.4038 51.8366C40.7617 51.7173 41.9812 50.8091 43.4791 51.6841C43.6316 51.7703 43.7774 51.8764 43.9431 51.9095C44.1088 51.9426 44.301 51.8764 44.3805 51.6974C44.5329 51.3659 44.1021 51.0941 43.9232 50.9549C43.6382 50.7163 43.2935 50.597 42.9555 50.5042Z" fill="#111D33"/>
<path d="M46.9985 40.6074C46.4881 43.1529 44.2081 45.4664 44.2081 45.4664C40.9737 48.4892 39.4228 43.9617 32.4569 44.8367C31.4693 44.956 30.7999 45.4399 30.7535 46.8784C30.6607 49.4902 29.1429 49.921 27.7709 50.5044C26.3989 51.0944 28.1819 55.4827 26.8894 55.9268C26.2001 56.1655 25.3252 53.4808 25.3252 53.4808C25.3252 53.4808 24.2714 49.1653 21.8986 49.8945C19.8174 50.5508 20.5465 54.3293 21.6799 56.5831C21.607 56.477 20.4471 54.7469 19.2938 52.4268C19.1149 52.0754 18.9426 51.7108 18.7769 51.333C18.8498 51.0678 18.9359 50.8226 19.042 50.5707C19.6385 49.1388 20.9442 47.8263 22.4885 47.9324C23.3766 47.9987 24.1521 48.5091 24.9673 48.8538C26.7701 49.6227 28.1421 49.0129 28.1885 47.0507C28.2084 46.4011 28.0957 45.7515 28.1686 45.1018C28.3807 43.1065 30.2895 41.6283 32.258 41.2372C36.2149 40.455 40.2513 43.027 44.1684 42.1785C45.2156 41.9465 46.2495 41.3896 46.9985 40.6074Z" fill="#51383C"/>
<path d="M23.8075 42.5776C22.7006 42.3257 21.5937 42.0805 20.4869 41.8219C19.9102 41.696 19.2541 41.57 18.7636 41.9015C18.4852 42.0805 18.2997 42.3788 18.2002 42.6903C18.0942 43.0019 18.0743 43.3399 18.0478 43.6648C17.9948 44.7718 17.5242 46.1705 17.332 47.4499C17.2127 46.9991 17.1133 46.555 17.0404 46.1108C16.6825 43.9896 16.9807 41.6827 19.4198 41.0066C19.4132 40.9933 19.4132 40.9801 19.4132 40.9668C19.4728 41.0198 19.5325 41.053 19.5987 41.0795C20.0097 41.2585 21.9649 41.7026 23.8075 42.5776Z" fill="#51383C"/>
<path d="M38.0177 61.5214C38.8926 61.6606 39.7078 61.6673 40.4634 61.5347C40.6092 61.5082 40.7351 61.6474 40.6755 61.7866C39.9862 63.5234 38.5347 63.5897 37.799 61.78C37.746 61.6408 37.8719 61.5015 38.0177 61.5214Z" fill="#E17659"/>
<path d="M40.9472 114.765C40.808 114.745 39.9066 114.666 39.6747 114.639C47.5552 116.058 42.4451 116.78 38.8661 116.396C45.9911 117.43 41.8353 118.378 38.2828 118.199C39.4758 118.371 40.934 118.676 40.9671 119.207C40.9936 119.624 39.7144 120.009 38.0243 120.327C37.6001 120.4 35.4328 120.42 34.9622 120.493C33.0136 120.784 32.3177 120.791 31.529 121.434C30.4685 121.938 25.544 122.766 23.655 122.912C14.7073 123.582 6.05791 122.793 2.59151 117.854C0.212093 114.46 0.318139 107.195 1.10023 100.586H14.1174C14.1307 102.442 14.0512 104.252 14.0247 104.59C13.8987 107.679 13.8258 109.204 13.1763 112.664C21.1165 114.016 27.8372 113.731 28.2415 113.545C29.0833 113.168 31.3566 110.874 32.7352 110.642C34.9224 110.277 40.8544 111.497 40.8544 111.497L39.3035 112.883C39.6614 112.969 44.354 113.618 44.1087 114.42C43.8966 115.156 41.4774 114.805 40.9472 114.765Z" fill="#F6A285"/>
<path d="M36.301 120.267C33.1859 120.817 32.4568 120.678 31.5223 121.434C30.4618 121.938 25.5373 122.766 23.6483 122.912C14.7007 123.582 6.05125 122.793 2.58486 117.854C0.20544 114.46 0.311487 107.195 1.09358 100.586H14.1174C14.1307 102.442 14.0511 104.252 14.0246 104.59C14.018 104.596 14.0047 104.61 13.9981 104.61C11.1216 106.048 9.15312 104.809 7.25091 104.318C6.21695 104.059 5.07695 103.993 4.15567 104.537C2.61137 105.445 2.41916 107.566 2.39928 109.356C2.37277 111.371 2.49207 113.705 4.08277 114.944C5.30893 115.892 6.99905 115.872 8.53672 116.064C15.4231 116.933 21.7528 123.177 28.7187 120.844C29.7593 120.493 30.727 119.949 31.7609 119.578C33.3781 118.968 35.2737 118.895 36.301 120.267Z" fill="url(#paint2_linear_647_7462)"/>
<path d="M15.4695 82.9801L2.65115 82.125C0.994175 88.3761 -0.245244 93.8515 0.0397558 100.812C0.145802 103.377 13.2293 103.676 15.0718 101.886C18.757 98.2863 15.4695 82.9801 15.4695 82.9801Z" fill="#C5ADFF"/>
<path d="M14.9724 101.984C12.1092 103.767 0.145812 103.177 0.0463935 100.804C-0.245234 93.8437 0.994184 88.3682 2.65779 82.1172L4.21535 82.2232C2.60477 88.3417 0.583254 93.6714 0.868254 100.506C0.961045 102.667 11.9236 102.766 14.9724 101.984Z" fill="#976FF8"/>
<path d="M75.0014 79.8515C79.0908 78.95 82.9483 74.8003 82.9483 74.8003C85.4337 74.7406 86.4809 74.9859 86.6135 73.2624C86.7659 71.161 82.0137 71.5322 79.2565 72.573C77.5929 73.1961 76.2143 74.8533 74.8026 78.128" fill="#F6A285"/>
<path d="M79.2963 77.8497C80.6086 76.9548 81.8281 75.9273 82.935 74.7871C82.9416 74.7805 82.9482 74.7805 82.9482 74.7805C83.7833 74.7474 84.6251 74.8004 85.447 74.6744C85.8513 74.6148 86.2556 74.4027 86.408 74.0116C86.5406 73.6337 86.6333 73.1962 86.5074 72.8117C86.2423 72.0693 85.1752 71.8704 84.3931 71.8108C82.4843 71.6782 78.892 72.2218 77.4007 73.879C75.8564 75.4832 74.7363 78.2474 74.7893 78.1347C75.4786 76.6233 76.0685 75.1915 77.3477 73.8259C78.4877 72.5134 80.2706 72.1356 81.8878 71.8572C82.7163 71.7312 83.558 71.6649 84.3997 71.7312C86.587 71.9102 86.9051 72.825 86.4677 74.0513C86.302 74.469 85.8645 74.6877 85.4536 74.7474C84.6185 74.8733 83.7767 74.8137 82.9416 74.8402L82.9549 74.8335C78.607 79.2948 75.0942 79.8052 74.9815 79.8715C75.2532 79.7588 76.7777 79.5401 79.2963 77.8497Z" fill="#E17659"/>
<path d="M261.239 245.785C262.724 242.922 265.826 243.724 269.63 243.724C271.645 243.724 272.208 242.325 272.294 241.012L279.545 240.754C280.791 242.776 281.414 246.766 281.394 249.265C281.388 250.479 280.4 251.446 279.187 251.446H263.393C262.565 251.446 261.809 250.982 261.425 250.247C260.868 249.159 260.358 247.482 261.239 245.785Z" fill="#497BFD"/>
<path d="M260.835 248.463C260.947 249.139 261.179 249.749 261.431 250.239C261.816 250.975 262.565 251.439 263.4 251.439H279.194C280.407 251.439 281.395 250.471 281.401 249.258C281.401 249.006 281.394 248.735 281.381 248.463H260.835Z" fill="#2C65E4"/>
<path d="M220.683 245.785C222.167 242.922 225.269 243.724 229.074 243.724C231.089 243.724 231.652 242.325 231.738 241.012L238.989 240.754C240.235 242.776 240.858 246.766 240.838 249.265C240.832 250.479 239.844 251.446 238.631 251.446H222.837C222.008 251.446 221.253 250.982 220.868 250.247C220.318 249.159 219.808 247.482 220.683 245.785Z" fill="#497BFD"/>
<path d="M220.279 248.463C220.391 249.139 220.623 249.749 220.875 250.239C221.259 250.975 222.008 251.439 222.844 251.439H238.638C239.851 251.439 240.838 250.471 240.845 249.258C240.845 249.006 240.838 248.735 240.825 248.463H220.279Z" fill="#2C65E4"/>
<path d="M241.912 240.536C245.007 222.717 252.205 205.303 256.381 184.694C258.966 197.607 264.971 224.096 268.125 237.745C268.344 238.646 268.536 239.521 268.715 240.35C269.206 242.61 275.748 243.287 279.393 242.372C280.931 241.987 281.964 241.311 281.812 240.35C279.128 222.724 279.002 178.343 279.002 178.343C278.989 178.158 282.09 146.12 275.893 135.288H253.849C253.849 135.288 253.849 135.388 253.849 135.587L239.546 134.752L239.135 134.738C239.135 134.738 239.108 134.871 239.042 135.116V135.123C238.91 135.706 238.625 136.939 238.267 138.702C235.867 150.31 235.085 165.868 234.761 177.713C234.177 199.118 233.461 218.017 228.848 240.204C228.153 243.532 241.335 243.89 241.912 240.536Z" fill="#8A4852"/>
<path d="M237.988 140.068C246.114 144.847 259.86 135.448 277.603 139.644C277.61 139.644 277.61 139.644 277.617 139.644C277.139 137.973 276.576 136.502 275.88 135.288H253.836C253.836 135.288 253.836 135.388 253.836 135.587L239.533 134.752L239.122 134.738C239.122 134.738 239.095 134.871 239.029 135.116V135.123C238.91 135.706 238.346 138.305 237.988 140.068Z" fill="#51383C"/>
<path d="M250.873 203.42C253.352 196.374 255.479 189.685 256.328 184.236C256.328 184.236 252.947 165.384 252.941 152.557L250.873 203.42Z" fill="#51383C"/>
<path d="M268.119 237.745C268.337 238.647 268.53 239.522 268.709 240.351C269.199 242.611 275.741 243.287 279.386 242.372C280.924 241.988 281.958 241.312 281.805 240.351C279.121 222.724 278.995 178.344 278.995 178.344C278.995 178.344 282.024 146.081 275.887 135.289H274.959C274.488 137.669 274.601 137.881 274.309 158.351C274.223 164.397 274.144 170.436 274.057 176.481C273.938 184.747 273.825 193.027 274.601 201.253C277.133 228.372 279.824 228.114 279.353 232.867C279.134 235.087 277.782 237.354 275.628 237.898C273.938 238.329 272.175 237.633 270.432 237.447C269.683 237.368 268.841 237.467 268.119 237.745Z" fill="#51383C"/>
<path d="M270.889 173.479C270.584 173.479 270.339 173.234 270.339 172.929V162.117C270.339 158.352 267.277 155.289 263.519 155.289C259.754 155.289 256.692 158.352 256.692 162.117V172.929C256.692 173.234 256.447 173.479 256.142 173.479C255.837 173.479 255.592 173.234 255.592 172.929V162.117C255.592 157.748 259.145 154.195 263.512 154.195C267.88 154.195 271.433 157.748 271.433 162.117V172.929C271.439 173.234 271.194 173.479 270.889 173.479Z" fill="#111D33"/>
<path d="M278.027 165.975H273.607V207.054H278.027V165.975Z" fill="#FFD475"/>
<path d="M273.607 165.975V207.054H243.403C241.985 207.054 240.832 205.901 240.832 204.482V168.553C240.832 167.135 241.985 165.981 243.403 165.981H273.607V165.975Z" fill="#FFDD99"/>
<path d="M282.587 168.553V204.482C282.587 205.079 282.375 205.642 282.024 206.066C281.567 206.663 280.831 207.054 280.003 207.054H278.014V165.975H280.003C281.428 165.975 282.587 167.135 282.587 168.553Z" fill="#FFB961"/>
<path d="M282.024 206.067C281.567 206.664 280.831 207.055 280.003 207.055H273.607C273.673 206.942 278.405 198.762 278.107 199.286L282.024 206.067Z" fill="#EF9645"/>
<path d="M265.322 173.479C265.017 173.479 264.772 173.234 264.772 172.929V162.117C264.772 158.352 261.71 155.289 257.945 155.289C254.18 155.289 251.125 158.352 251.125 162.117V172.929C251.125 173.234 250.88 173.479 250.575 173.479C250.27 173.479 250.025 173.234 250.025 172.929V162.117C250.025 157.748 253.577 154.195 257.945 154.195C262.313 154.195 265.865 157.748 265.865 162.117V172.929C265.872 173.234 265.627 173.479 265.322 173.479Z" fill="#111D33"/>
<path d="M268.132 191.21C268.132 195.413 263.426 198.827 257.62 198.827C251.814 198.827 247.108 195.413 247.108 191.21C247.108 187.008 251.814 183.594 257.62 183.594C263.42 183.594 268.132 187.008 268.132 191.21Z" fill="#FFB961"/>
<path d="M199.268 70.3528C199.268 70.3528 196.411 71.3073 198.89 73.0507C198.89 73.0507 196.431 73.8528 198.645 75.5565C198.645 75.5565 197.094 76.8557 199.069 78.155C199.951 78.7384 200.541 79.2289 201.23 79.6797H201.237C201.906 80.1039 202.655 80.495 203.821 80.8861C204.484 81.1115 204.995 81.6286 205.18 82.3047C206.479 87.0709 211.888 105.937 216.819 108.164C222.472 110.716 231.95 100.746 231.95 100.746C231.168 99.8448 234.787 104.021 224.288 91.9034L220.696 95.6885C220.749 93.5672 217.455 89.7423 215.294 87.926C213.134 86.1097 211.364 77.3662 211.364 77.3662C211.364 77.3662 208.852 71.7183 204.882 69.6965C200.905 67.6614 198.44 67.2969 197.452 68.3641C196.657 69.2391 198.181 69.7694 199.268 70.3528Z" fill="#F6A285"/>
<path d="M169.853 54.0188C169.853 67.1904 180.531 77.863 193.694 77.863C206.864 77.863 217.541 67.1838 217.541 54.0188C217.541 40.8471 206.864 30.168 193.694 30.168C180.531 30.168 169.853 40.8471 169.853 54.0188Z" fill="#EE9545"/>
<path d="M171.497 54.0188C171.497 67.1904 182.175 77.863 195.338 77.863C208.507 77.863 219.185 67.1838 219.185 54.0188C219.185 40.8471 208.507 30.168 195.338 30.168C182.175 30.168 171.497 40.8471 171.497 54.0188Z" fill="#FFDE9E"/>
<path d="M176.342 54.0188C176.342 64.7576 185.045 73.4613 195.782 73.4613C206.519 73.4613 215.221 64.7576 215.221 54.0188C215.221 43.2799 206.519 34.5762 195.782 34.5762C185.051 34.5695 176.342 43.2799 176.342 54.0188Z" fill="#FFD375"/>
<path d="M195.782 73.7323C184.912 73.7323 176.07 64.8893 176.07 54.0179C176.07 43.1465 184.912 34.2969 195.782 34.2969C206.652 34.2969 215.5 43.1398 215.5 54.0179C215.5 64.8893 206.658 73.7323 195.782 73.7323ZM195.782 34.8471C185.217 34.8471 176.614 43.4448 176.614 54.0179C176.614 64.5844 185.21 73.1887 195.782 73.1887C206.353 73.1887 214.95 64.591 214.95 54.0179C214.95 43.4448 206.353 34.8471 195.782 34.8471Z" fill="#EE9545"/>
<path d="M195.788 52.541C194.218 52.541 192.932 51.2616 192.932 49.684C192.932 48.1129 194.211 46.8335 195.788 46.8335C197.359 46.8335 198.638 48.1129 198.638 49.684C198.638 50.3137 199.149 50.8175 199.772 50.8175C200.401 50.8175 200.905 50.3071 200.905 49.684C200.905 47.2512 199.195 45.2094 196.915 44.6924V43.7312C196.915 43.1015 196.405 42.5977 195.782 42.5977C195.152 42.5977 194.648 43.1081 194.648 43.7312V44.6924C192.368 45.2094 190.658 47.2512 190.658 49.684C190.658 52.5145 192.958 54.8147 195.782 54.8147C197.353 54.8147 198.632 56.0941 198.632 57.6652C198.632 59.2362 197.353 60.5222 195.782 60.5222C194.211 60.5222 192.925 59.2428 192.925 57.6652C192.925 57.0354 192.415 56.5316 191.792 56.5316C191.162 56.5316 190.658 57.0421 190.658 57.6652C190.658 60.1046 192.368 62.1397 194.648 62.6634V63.4522C194.648 64.082 195.159 64.5857 195.782 64.5857C196.411 64.5857 196.915 64.0753 196.915 63.4522V62.6634C199.195 62.1463 200.905 60.1046 200.905 57.6652C200.912 54.8413 198.612 52.541 195.788 52.541Z" fill="#EE9545"/>
<path d="M201.243 79.6734C201.913 80.0977 202.662 80.4888 203.828 80.8799C204.491 81.1053 205.001 81.6223 205.187 82.2985C206.486 87.0647 211.894 105.931 216.825 108.158C222.479 110.71 231.957 100.74 231.957 100.74L225.667 93.4881C222.744 94.6946 221.704 97.2997 222.327 99.1492C222.797 100.508 224.116 101.681 223.831 103.087C223.546 104.492 221.856 105.049 220.451 105.341C219.092 105.619 217.422 105.785 216.593 104.678C215.665 103.445 216.567 101.721 216.633 100.17C216.726 98.294 215.513 96.6103 214.207 95.2646C212.895 93.9057 211.39 92.6595 210.622 90.9426C209.409 88.2446 210.264 84.9103 208.865 82.3051C208.123 80.9131 206.744 79.8789 205.207 79.5276C203.848 79.216 202.569 79.6668 201.243 79.6734Z" fill="url(#paint3_linear_647_7462)"/>
<path d="M231.818 103.365C232.063 103.352 232.355 103.246 232.653 103.053C234.151 102.112 236.079 99.2881 236.225 99.076C236.146 99.6129 234.688 121.236 235.616 132.32C235.887 135.615 236.371 137.974 237.166 138.591C242.277 142.475 262.558 132.698 276.801 139.598C284.258 143.211 274.236 104.611 274.236 104.611C274.349 104.611 279.724 104.472 279.386 104.479V102.967H284.258C284.026 99.7256 282.826 84.4195 280.911 81.8607C278.306 78.0425 272.228 74.2706 267.615 72.567C266.767 72.2687 265.865 71.977 264.997 71.798C261.57 71.0954 251.509 71.6721 248.056 72.2554C243.582 72.9713 237.544 74.5755 233.799 77.1277C228.862 80.4951 223.294 87.7405 221.419 93.7066C220.351 97.074 228.265 103.405 231.818 103.365Z" fill="#6EB854"/>
<path d="M235.609 132.312C235.881 135.607 236.364 137.967 237.16 138.583C242.27 142.468 262.551 132.69 276.795 139.591C284.251 143.204 274.23 104.604 274.23 104.604L278.505 104.498C277.895 103.55 277.345 102.509 276.47 101.826C275.284 100.885 273.746 100.925 272.897 102.257C272.334 103.119 272.533 103.927 272.48 104.902C272.4 106.453 271.983 107.925 271.996 109.502C272.062 117.722 276.854 123.019 275.595 134.129C275.489 134.924 275.27 135.866 274.528 136.177C273.746 136.489 272.911 135.945 272.208 135.488C268.457 133.128 263.645 133.247 259.317 134.222C252.45 135.793 242.933 140.413 239.248 135.812C238.439 134.785 238.061 133.36 236.941 132.67C236.537 132.418 236.079 132.299 235.609 132.312Z" fill="#438829"/>
<path d="M260.881 149.064C260.994 149.117 270.22 153.704 269.636 153.413C269.636 153.413 283.509 128.296 284.556 121.899C285.596 115.588 284.642 102.132 283.237 95.6484L269.113 98.0746C273.043 131.352 271.684 119.857 271.983 122.35L260.881 149.064Z" fill="#F6A285"/>
<path d="M269.961 152.644C269.789 156.038 268.941 157.927 268.152 158.961C267.449 159.923 265.348 162.753 264.096 162.428C263.294 162.223 264.381 159.836 264.115 159.538C263.87 161.083 262.505 162.879 261.756 162.614C260.994 162.349 261.723 160.095 261.464 159.79C261.371 160.466 260.662 162.687 259.43 162.495C258.283 162.316 259.814 159.233 259.542 158.935C259.449 159.611 258.23 162.13 257.382 161.818C256.361 161.441 257.415 157.616 257.826 156.31C259.025 152.525 254.512 155.335 253.577 154.01C252.477 152.452 258.753 150.171 261.086 149.064L269.961 152.644Z" fill="#F6A285"/>
<path d="M269.637 153.419C269.637 153.419 283.509 128.302 284.556 121.905C285.597 115.594 284.642 102.137 283.237 95.6543L269.113 98.0805L270.26 107.825C273.395 108.514 274.177 107.281 276.417 107.023C278.564 106.778 280.056 106.605 281.381 108.654C284.49 113.44 278.379 117.49 277.444 121.958C276.556 126.187 278.518 130.323 278.445 134.553C278.412 135.985 277.126 136.787 276.211 137.801C275.33 138.762 274.362 139.604 273.52 140.605C271.658 142.826 272.453 147.008 270.18 148.851C269.352 149.534 269.637 153.419 269.637 153.419Z" fill="url(#paint4_linear_647_7462)"/>
<path d="M243.337 80.8398C241.945 85.6458 238.572 94.7142 236.146 99.0892C242.548 90.4849 243.337 80.8398 243.337 80.8398Z" fill="#438829"/>
<path d="M248.036 72.2411V72.2477L252.265 82.2706C252.563 82.9799 253.484 83.1655 254.035 82.6286L265.163 71.8301C265.163 71.8301 265.163 71.8301 265.163 71.8234C262.068 71.1141 255.34 71.6179 252.053 71.7837C250.893 71.8499 249.521 71.9958 248.036 72.2411Z" fill="white"/>
<path d="M231.818 103.357C232.063 103.351 232.348 103.238 232.646 103.046C232.083 102.065 231.215 101.276 230.26 100.659C227.582 98.9095 222.704 97.7759 221.989 93.9179C221.916 93.5135 222.022 92.8109 221.889 92.3203C221.704 92.791 221.544 93.2484 221.405 93.6991C220.325 97.0534 228.259 103.41 231.818 103.357Z" fill="#438829"/>
<path d="M284.417 102.708C284.264 105.254 271.4 105.539 269.583 103.776C265.951 100.223 269.199 85.1219 269.199 85.1219C270.492 85.0358 264.52 85.4401 281.838 84.2734C284.384 93.7395 284.417 97.107 284.417 102.708Z" fill="#6EB854"/>
<path d="M284.417 102.708C284.384 103.159 283.979 103.53 283.297 103.835C282.892 97.3058 281.54 89.1389 280.307 84.3926C280.294 84.3794 280.294 84.3794 280.294 84.3728C280.261 84.3264 280.228 84.2733 280.195 84.2335C277.583 80.3954 271.519 76.6302 266.893 74.9266C262.79 73.4417 260.278 73.7068 251.344 74.1576C246.061 74.4294 237.591 76.4181 233.084 79.4873C228.484 82.6227 223.553 88.9268 221.306 94.3625C221.306 91.817 226.887 81.8273 233.786 77.1207C238.253 74.0714 246.677 72.0629 252.046 71.7911C255.281 71.6254 261.822 71.1348 264.99 71.7911C269.729 72.739 277.829 77.3527 280.911 81.8538C280.944 81.9068 280.977 81.9532 281.023 82.0261C281.308 82.5299 281.58 83.2989 281.832 84.2601C284.331 93.6201 284.417 96.7754 284.417 102.708Z" fill="#438829"/>
<path d="M249.879 57.5449L249.978 71.9959L253.67 79.9307L262.081 71.5054V57.5449H249.879Z" fill="#F6A285"/>
<path d="M253.67 79.9306L262.081 71.5052V60.9785C261.491 60.0903 260.232 59.8384 259.237 59.666C257.063 63.3583 257.541 61.2503 256.182 69.3442C255.983 70.4181 255.797 71.5052 255.267 72.4466C254.585 73.6596 253.67 79.9306 253.67 79.9306Z" fill="url(#paint5_linear_647_7462)"/>
<path d="M241.972 59.7467C241.965 65.7326 242.953 71.9704 247.228 71.1352C251.894 70.2403 256.825 67.5821 260.596 64.7515C261.537 64.0422 262.074 63.5848 262.074 63.5848V60.3897C262.114 60.277 267.038 54.7286 262.379 52.9521L261.57 46.005C253.339 45.6536 245.617 45.7 242.741 49.5647C242.727 49.684 241.972 54.9208 241.972 59.7467Z" fill="url(#paint6_linear_647_7462)"/>
<path d="M251.178 57.5316C251.204 58.0088 250.84 58.4198 250.363 58.4463C249.892 58.4729 249.475 58.1149 249.448 57.6376C249.422 57.1603 249.786 56.7493 250.257 56.7228C250.734 56.6897 251.151 57.0476 251.178 57.5316Z" fill="#111D33"/>
<path d="M249.998 57.8827C249.7 57.9026 249.673 57.4518 249.972 57.4319C250.27 57.4187 250.296 57.8694 249.998 57.8827Z" fill="#FBFBFB"/>
<path d="M267.211 49.4593C266.681 52.6677 264.44 57.0693 262.783 59.469C263.864 57.3146 264.566 53.6952 262.571 53.0787C260.304 52.3761 259.297 56.5059 259.297 56.5059C259.297 56.5059 258.462 59.0713 257.806 58.8393C256.566 58.4084 258.27 54.2189 256.957 53.6554C255.645 53.092 254.194 52.681 254.107 50.1885C254.061 48.8163 253.425 48.359 252.477 48.2396C245.822 47.4044 244.344 51.7397 241.243 48.8429C239.718 47.4176 239.102 45.7472 239.473 44.1098C240.182 41.0274 244.444 38.0908 252.861 37.2953C265.587 36.0955 262.558 42.9431 262.492 43.089C262.71 43.2149 268.278 43.0227 267.211 49.4593Z" fill="#4C5C75"/>
<path opacity="0.1" d="M239.393 45.3812C239.407 45.1757 239.44 44.9835 239.486 44.7846C240.189 41.6956 244.457 38.7656 252.875 37.9635C260.961 37.2012 262.684 39.687 262.856 41.6359C263.009 39.6539 261.922 36.4388 252.875 37.294C244.457 38.0894 240.189 41.026 239.486 44.1085C239.387 44.5327 239.36 44.9504 239.393 45.3812Z" fill="white"/>
<path opacity="0.3" d="M247.234 71.1341C247.983 70.9883 248.719 70.8027 249.448 70.584C248.971 70.7099 248.487 70.816 248.003 70.9154C240.275 72.4268 242.74 49.5703 242.74 49.5703C242.74 49.5703 239.241 72.7052 247.234 71.1341Z" fill="#FDE0BB"/>
<path d="M251.556 55.3449C253.146 55.7028 254.187 56.8496 254.525 56.558C254.618 56.4784 254.618 56.3458 254.611 56.2265C254.538 55.5371 254.068 54.9538 253.531 54.5163C251.218 52.6535 247.771 53.3363 248.063 54.8212C248.275 55.9547 249.567 54.9007 251.556 55.3449Z" fill="#111D33"/>
<path d="M246.035 54.3229C245.809 53.8722 245.319 53.607 244.855 53.428C243.96 53.09 242.966 53.0237 242.031 53.2159C241.627 53.3021 241.342 53.6667 241.362 54.0777C241.388 54.5483 241.793 54.8997 242.263 54.8665C244.464 54.7008 245.597 56.2056 246.074 55.0985C246.187 54.8466 246.154 54.5616 246.035 54.3229Z" fill="#111D33"/>
<path d="M260.662 56.7887C261.027 55.2574 262.28 54.3161 263.618 55.0519C263.671 55.0784 263.691 55.1447 263.665 55.1977C263.565 55.3767 263.386 55.0652 262.823 55.0188C262.074 54.9591 261.219 55.5027 260.894 56.8019C261.02 56.7025 261.166 56.623 261.332 56.6031C261.637 56.5567 262.041 56.676 262.193 56.8218C262.386 57.0074 262.352 57.3124 262.187 57.2726H262.18C262.12 57.2593 262.087 57.1997 262.107 57.14C262.18 56.8749 261.219 56.55 260.855 57.1533C260.848 57.1599 260.841 57.1533 260.835 57.1599C260.775 57.5444 260.742 57.9355 260.729 58.3332C260.729 58.3929 260.676 58.4393 260.616 58.4393C260.609 58.4393 260.603 58.4393 260.596 58.4393C260.543 58.426 260.51 58.3796 260.51 58.3266" fill="#E17659"/>
<path d="M262.79 59.4678C263.87 57.3135 264.573 53.6941 262.578 53.0776C260.311 52.3749 259.304 56.5047 259.304 56.5047C259.304 56.5047 258.469 59.0701 257.812 58.8381C256.573 58.4072 258.276 54.2178 256.964 53.6543C255.652 53.0908 254.2 52.6798 254.114 50.1874C254.068 48.8152 253.431 48.3578 252.483 48.2385C245.829 47.4032 244.351 51.7385 241.249 48.8417C239.725 47.4165 239.108 45.746 239.48 44.1087C240.315 44.9174 241.64 45.1229 242.807 45.0964C246.764 45.0102 250.813 42.6569 254.611 44.281C256.454 45.0699 257.898 47.0585 257.488 49.0141C257.355 49.6306 257.05 50.2139 256.977 50.8436C256.805 52.2821 258.091 53.0444 259.184 51.838C259.542 51.4402 259.801 50.9563 260.198 50.605C260.994 49.8957 262.319 49.8758 263.135 50.5652C263.996 51.2944 264.175 52.3749 265.077 55.4971C263.963 57.7178 262.856 59.3684 262.79 59.4678Z" fill="#111D33"/>
<path d="M267.211 49.4578C267.191 49.4512 267.178 49.3783 267.171 49.2523C267.125 47.7012 265.925 44.9104 264.122 43.9558C262.366 43.0278 259.569 44.4199 259.436 44.4861C261.226 43.0013 262.492 43.0808 262.492 43.0808C266.886 43.4852 267.741 46.2826 267.211 49.4578Z" fill="#111D33"/>
<path d="M245.292 62.3986C246.744 61.8219 245.922 61.9147 247.108 62.3986C247.718 62.6505 246.949 61.1523 246.445 61.1523C245.948 61.1523 244.596 62.677 245.292 62.3986Z" fill="#E17659"/>
<path d="M248.414 65.3547C248.513 65.3415 248.6 65.4409 248.56 65.5337C247.685 67.6483 244.941 67.6351 244.053 65.5337C244.013 65.4409 244.093 65.3415 244.192 65.3547C245.531 65.5337 246.943 65.5271 248.414 65.3547Z" fill="#E17659"/>
<path d="M248.454 57.5595C248.474 57.5793 248.474 57.5793 248.493 57.5793C249.044 57.3871 249.64 57.175 250.17 56.9629C251.072 57.3672 251.542 57.8909 252.934 57.9373C252.954 57.9373 252.974 57.9174 252.974 57.8975C252.954 57.8777 252.954 57.8776 252.954 57.8776C252.106 56.9827 251.118 56.8237 250.276 56.5187H250.257C250.124 56.4723 250.177 56.4259 248.474 57.5197C248.454 57.5396 248.454 57.5595 248.454 57.5595Z" fill="#111D33"/>
<path d="M244.338 57.5316C244.364 58.0088 244 58.4198 243.523 58.4463C243.052 58.4729 242.634 58.1149 242.608 57.6376C242.581 57.1603 242.946 56.7493 243.417 56.7228C243.894 56.6897 244.311 57.0476 244.338 57.5316Z" fill="#111D33"/>
<path d="M241.614 57.5576C241.634 57.5775 241.634 57.5775 241.654 57.5775C242.204 57.3853 242.8 57.1731 243.33 56.961C244.232 57.3654 244.702 57.8891 246.094 57.9355C246.114 57.9355 246.134 57.9156 246.134 57.8957C246.114 57.8758 246.114 57.8758 246.114 57.8758C245.272 56.9809 244.278 56.8218 243.436 56.5169H243.417C243.35 56.497 243.291 56.497 243.244 56.5169C242.694 56.8351 242.157 57.1731 241.627 57.5178C241.614 57.5377 241.614 57.5576 241.614 57.5576Z" fill="#111D33"/>
<path d="M243.158 57.8827C243.032 57.8893 242.926 57.7965 242.92 57.6706C242.913 57.5446 243.006 57.4386 243.132 57.4319C243.43 57.4187 243.456 57.8694 243.158 57.8827Z" fill="#FBFBFB"/>
<path d="M207.911 77.8632C203.802 76.9086 204.173 73.7798 204.173 73.7798C201.893 73.5345 199.069 73.5876 199.083 71.9966C199.096 70.061 205.28 70.8564 207.732 72.0165C209.21 72.7192 210.35 74.3433 211.391 77.4456" fill="#F6A285"/>
<path d="M205.213 76.5376C204.491 75.8283 204.06 74.8008 204.146 73.7799L204.166 73.8064C202.536 73.6341 199.493 73.6805 199.096 72.3547C199.029 72.1293 199.016 71.8841 199.116 71.6587C199.215 71.4399 199.407 71.2808 199.613 71.1748C200.03 70.9626 200.488 70.8765 200.945 70.8301C201.86 70.7439 202.774 70.8036 203.682 70.9162C205.213 71.1151 207.679 71.6123 208.806 72.6862C210.217 74.0318 210.807 75.7951 211.397 77.459C210.761 75.7819 210.144 74.0451 208.746 72.7524C207.606 71.7117 205.174 71.2079 203.676 71.009C202.774 70.8964 201.866 70.8301 200.958 70.9162C200.507 70.9626 200.057 71.0422 199.659 71.2477C199.235 71.4267 199.016 71.9039 199.175 72.3348C199.301 72.7723 199.725 73.0309 200.143 73.1833C201.581 73.7136 204.212 73.6407 204.199 73.7866C203.861 77.3927 208.885 78.0887 207.924 77.8633C206.446 77.5186 205.73 77.0414 205.213 76.5376Z" fill="#E17659"/>
<path d="M154.543 198.981C154.331 198.981 154.158 198.808 154.158 198.596V183.787C154.158 177.921 149.386 173.148 143.521 173.148C137.655 173.148 132.883 177.921 132.883 183.787V198.596C132.883 198.808 132.711 198.981 132.498 198.981C132.286 198.981 132.114 198.808 132.114 198.596V183.787C132.114 177.496 137.231 172.379 143.514 172.379C149.804 172.379 154.914 177.496 154.914 183.787V198.596C154.927 198.808 154.755 198.981 154.543 198.981Z" fill="#4C5C75"/>
<path d="M165.201 188.201H158.593V251.448H165.201V188.201Z" fill="#FFD475"/>
<path d="M158.593 188.201V251.448H113.443C111.316 251.448 109.599 249.724 109.599 247.603V192.053C109.599 189.925 111.322 188.208 113.443 188.208H158.593V188.201Z" fill="#FFDD99"/>
<path d="M172.027 192.059V247.603C172.027 248.498 171.716 249.34 171.186 249.969C170.503 250.864 169.403 251.441 168.163 251.441H165.194V188.201H168.163C170.291 188.195 172.027 189.925 172.027 192.059Z" fill="#FFB961"/>
<path d="M171.186 249.964C170.503 250.859 169.403 251.436 168.163 251.436H158.599L165.194 240.061L165.327 239.822L171.186 249.964Z" fill="#EF9645"/>
<path d="M146.218 198.981C146.006 198.981 145.834 198.808 145.834 198.596V183.787C145.834 177.921 141.062 173.148 135.196 173.148C129.33 173.148 124.558 177.921 124.558 183.787V198.596C124.558 198.808 124.386 198.981 124.174 198.981C123.962 198.981 123.789 198.808 123.789 198.596V183.787C123.789 177.496 128.906 172.379 135.189 172.379C141.479 172.379 146.589 177.496 146.589 183.787V198.596C146.603 198.808 146.43 198.981 146.218 198.981Z" fill="#4C5C75"/>
<path d="M150.414 225.92C150.414 232.204 143.375 237.308 134.699 237.308C126.023 237.308 118.984 232.204 118.984 225.92C118.984 219.636 126.023 214.531 134.699 214.531C143.375 214.531 150.414 219.636 150.414 225.92Z" fill="#FFB961"/>
<path d="M120.429 220.014C120.217 220.014 120.045 219.842 120.045 219.63V208.109C120.045 203.986 116.691 200.638 112.575 200.638C108.459 200.638 105.105 203.992 105.105 208.109V219.63C105.105 219.842 104.933 220.014 104.721 220.014C104.509 220.014 104.336 219.842 104.336 219.63V208.109C104.336 203.568 108.035 199.869 112.575 199.869C117.115 199.869 120.813 203.568 120.813 208.109V219.63C120.807 219.849 120.641 220.014 120.429 220.014Z" fill="#4C5C75"/>
<path d="M128.018 212.219H123.312V251.442H128.018V212.219Z" fill="#DF3260"/>
<path d="M123.312 212.219V251.442H91.1337C89.6159 251.442 88.3898 250.216 88.3898 248.698V214.963C88.3898 213.445 89.6159 212.219 91.1337 212.219H123.312Z" fill="#F45170"/>
<path d="M132.89 214.97V248.704C132.89 249.341 132.664 249.937 132.293 250.388C131.809 251.024 131.02 251.435 130.139 251.435H128.025V212.219H130.139C131.65 212.219 132.89 213.452 132.89 214.97Z" fill="#F45170"/>
<path d="M132.286 250.388C131.803 251.024 131.014 251.435 130.132 251.435H123.319L128.018 243.328L128.111 243.162L132.286 250.388Z" fill="#D12057"/>
<path d="M114.49 220.014C114.278 220.014 114.106 219.842 114.106 219.63V208.109C114.106 203.986 110.752 200.638 106.636 200.638C102.514 200.638 99.1667 203.992 99.1667 208.109V219.63C99.1667 219.842 98.9944 220.014 98.7823 220.014C98.5702 220.014 98.3979 219.842 98.3979 219.63V208.109C98.3979 203.568 102.096 199.869 106.636 199.869C111.176 199.869 114.875 203.568 114.875 208.109V219.63C114.875 219.849 114.703 220.014 114.49 220.014Z" fill="#4C5C75"/>
<path d="M117.48 233.251C117.48 237.732 112.462 241.365 106.278 241.365C100.095 241.365 95.0773 237.726 95.0773 233.251C95.0773 228.77 100.095 225.131 106.278 225.131C112.462 225.137 117.48 228.77 117.48 233.251Z" fill="#D12057"/>
<path d="M190.758 250.17L193.276 223.164H152.256L154.775 250.17C154.841 250.893 155.444 251.443 156.173 251.443H189.366C190.088 251.443 190.692 250.893 190.758 250.17Z" fill="#8EB6FF"/>
<path d="M195.629 217.496V222.037C195.629 222.66 195.126 223.164 194.503 223.164H151.03C150.407 223.164 149.903 222.66 149.903 222.037V217.496C149.903 216.873 150.407 216.369 151.03 216.369H194.503C195.126 216.376 195.629 216.88 195.629 217.496Z" fill="#7BA4EE"/>
<path d="M178.98 216.375H166.566V223.163H178.98V216.375Z" fill="#FFB861"/>
<path d="M177.853 223.164H167.679V251.443H177.853V223.164Z" fill="#FFD375"/>
<path d="M170.026 216.369C169.999 216.369 169.973 216.376 169.946 216.376C169.303 216.409 168.72 216.489 168.177 216.595C162.98 217.622 162.231 221.792 163.438 227.347C161.396 226.074 159.865 224.377 159.083 222.07C158.003 223.078 157.234 224.563 156.399 226.246C156.399 226.246 154.835 216.568 163.464 214.447C165.711 214.116 167.255 214.454 168.435 215.13C168.614 215.223 168.786 215.335 168.945 215.455C169.343 215.72 169.701 216.031 170.026 216.369Z" fill="#D02057"/>
<path d="M185.17 217.066C182.307 215.806 179.603 215.607 176.998 216.144C176.786 216.184 176.581 216.23 176.369 216.29C176.269 216.317 176.163 216.337 176.064 216.37L175.925 215.402C176.011 215.342 176.104 215.276 176.196 215.223C176.362 215.117 176.528 215.017 176.693 214.931C179.053 213.592 181.784 213.32 185.084 214.686C184.581 214.799 184.223 215.017 183.977 215.309C184.707 215.819 185.084 216.416 185.17 217.066Z" fill="#D02057"/>
<path d="M172.882 214.512L169.741 215.328L168.998 215.52C168.998 215.52 156.18 214.32 154.735 212.252C154.722 212.232 154.709 212.212 154.695 212.192C153.615 210.482 156.041 206.809 156.041 206.809C157.234 203.581 160.177 204.078 160.177 204.078C167.865 204.476 172.882 214.512 172.882 214.512Z" fill="#F45170"/>
<path d="M169.741 215.328L168.998 215.521C168.998 215.521 156.18 214.321 154.735 212.253C154.722 212.233 154.709 212.213 154.695 212.193C154.881 211.596 155.517 210.377 157.499 210.297C159.832 210.204 167.116 213.108 169.741 215.328Z" fill="#D02057"/>
<path d="M188.909 207.698C187.576 212.384 180.16 213.969 180.16 213.969C180.16 213.969 179.471 214.685 177.595 215.215C175.712 215.745 173.764 214.831 173.764 214.831C173.691 214.671 173.638 214.506 173.598 214.333C172.697 210.913 176.316 204.854 178.695 201.818C180.491 199.531 181.631 198.643 182.765 199.286C183.335 199.611 183.911 200.327 184.567 201.453C186.397 204.582 187.57 205.398 187.57 205.398C189.485 206.379 188.909 207.698 188.909 207.698Z" fill="#F45170"/>
<path d="M181.89 202.588C180.233 205.299 174.652 211.543 173.605 214.328C172.703 210.907 176.322 204.848 178.702 201.812C180.498 199.525 181.638 198.637 182.771 199.28C182.937 199.843 182.93 200.884 181.89 202.588Z" fill="#D02057"/>
<path d="M176.369 216.29C176.375 216.317 176.375 216.343 176.375 216.37H169.946C169.303 216.403 168.72 216.483 168.177 216.589C168.177 216.072 168.269 215.581 168.435 215.117C169.045 213.4 170.682 212.174 172.604 212.174C174.447 212.174 176.031 213.307 176.693 214.918C176.852 215.303 176.958 215.714 176.998 216.138C176.786 216.184 176.581 216.231 176.369 216.29Z" fill="#D02057"/>
<path d="M176.375 216.375H168.826C168.826 216.051 168.866 215.739 168.945 215.447C169.356 213.817 170.841 212.604 172.604 212.604C174.281 212.604 175.706 213.704 176.19 215.215C176.302 215.553 176.362 215.911 176.369 216.289C176.375 216.322 176.375 216.342 176.375 216.375Z" fill="#F45170"/>
<path d="M72.2641 2.30004V20.0987C72.2641 20.8212 71.6808 21.4046 70.9584 21.4046H51.9562L45.4409 26.5618C45.0234 26.8933 44.407 26.595 44.407 26.0647V21.4046H41.1991C40.4766 21.4046 39.8934 20.8212 39.8934 20.0987V2.30004C39.8934 1.57748 40.4766 0.994141 41.1991 0.994141H70.965C71.6808 0.994141 72.2641 1.57748 72.2641 2.30004Z" fill="#8EB6FF"/>
<path d="M50.9023 10.6187C50.9023 12.2097 49.6033 13.5089 48.0126 13.5089C46.4219 13.5089 45.1228 12.2097 45.1228 10.6187C45.1228 9.02778 46.4219 7.72852 48.0126 7.72852C49.6033 7.72852 50.9023 9.02778 50.9023 10.6187Z" fill="white"/>
<path d="M58.9685 10.6187C58.9685 12.2097 57.6694 13.5089 56.0787 13.5089C54.488 13.5089 53.189 12.2097 53.189 10.6187C53.189 9.02778 54.488 7.72852 56.0787 7.72852C57.6694 7.72852 58.9685 9.02778 58.9685 10.6187Z" fill="white"/>
<path d="M67.028 10.6187C67.028 12.2097 65.7289 13.5089 64.1382 13.5089C62.5475 13.5089 61.2485 12.2097 61.2485 10.6187C61.2485 9.02778 62.5475 7.72852 64.1382 7.72852C65.7289 7.72852 67.028 9.02778 67.028 10.6187Z" fill="white"/>
<path d="M241.17 28.0071C241.627 28.3717 242.31 28.0403 242.31 27.4569V22.3195H245.849C246.644 22.3195 247.287 21.6765 247.287 20.8811V1.43847C247.287 0.643004 246.644 0 245.849 0H214.227C213.432 0 212.789 0.643004 212.789 1.43847V20.8811C212.789 21.6765 213.432 22.3195 214.227 22.3195H233.985L241.17 28.0071Z" fill="#BB6542"/>
<path d="M224.905 10.8453C224.905 12.4362 223.606 13.7355 222.015 13.7355C220.424 13.7355 219.125 12.4362 219.125 10.8453C219.125 9.25434 220.424 7.95508 222.015 7.95508C223.612 7.95508 224.905 9.25434 224.905 10.8453Z" fill="white"/>
<path d="M232.925 10.8453C232.925 12.4362 231.625 13.7355 230.035 13.7355C228.444 13.7355 227.145 12.4362 227.145 10.8453C227.145 9.25434 228.444 7.95508 230.035 7.95508C231.625 7.95508 232.925 9.25434 232.925 10.8453Z" fill="white"/>
<path d="M240.938 10.8453C240.938 12.4362 239.639 13.7355 238.048 13.7355C236.457 13.7355 235.158 12.4362 235.158 10.8453C235.158 9.25434 236.457 7.95508 238.048 7.95508C239.639 7.95508 240.938 9.25434 240.938 10.8453Z" fill="white"/>
</g>
<defs>
<linearGradient id="paint0_linear_647_7462" x1="51.4107" y1="90.0849" x2="81.3584" y2="96.3182" gradientUnits="userSpaceOnUse">
<stop offset="1e-07" stop-color="#F6A285"/>
<stop offset="1" stop-color="#FC6B58"/>
</linearGradient>
<linearGradient id="paint1_linear_647_7462" x1="48.7737" y1="54.679" x2="7.45279" y2="54.4187" gradientUnits="userSpaceOnUse">
<stop offset="1e-07" stop-color="#FDE0BB"/>
<stop offset="1" stop-color="#FC6B58"/>
</linearGradient>
<linearGradient id="paint2_linear_647_7462" x1="0.594332" y1="111.853" x2="36.3021" y2="111.853" gradientUnits="userSpaceOnUse">
<stop offset="1e-07" stop-color="#F6A285"/>
<stop offset="1" stop-color="#FC6B58"/>
</linearGradient>
<linearGradient id="paint3_linear_647_7462" x1="231.96" y1="93.9978" x2="201.245" y2="93.9978" gradientUnits="userSpaceOnUse">
<stop offset="1e-07" stop-color="#F6A285"/>
<stop offset="1" stop-color="#FC6B58"/>
</linearGradient>
<linearGradient id="paint4_linear_647_7462" x1="285" y1="124.534" x2="269.121" y2="124.534" gradientUnits="userSpaceOnUse">
<stop offset="1e-07" stop-color="#F6A285"/>
<stop offset="1" stop-color="#FC6B58"/>
</linearGradient>
<linearGradient id="paint5_linear_647_7462" x1="262.078" y1="69.7992" x2="252.829" y2="69.7992" gradientUnits="userSpaceOnUse">
<stop offset="1e-07" stop-color="#F6A285"/>
<stop offset="1" stop-color="#FC6B58"/>
</linearGradient>
<linearGradient id="paint6_linear_647_7462" x1="236.646" y1="58.6295" x2="276.495" y2="58.3786" gradientUnits="userSpaceOnUse">
<stop offset="1e-07" stop-color="#FDE0BB"/>
<stop offset="1" stop-color="#FC6B58"/>
</linearGradient>
<clipPath id="clip0_647_7462">
<rect width="285" height="251.441" fill="white"/>
</clipPath>
</defs>
</svg>
