<svg width="19" height="18" viewBox="0 0 19 18" fill="none" xmlns="http://www.w3.org/2000/svg">
<path d="M13.6538 5.72727C13.6538 5.50568 13.5853 5.31392 13.4483 5.15199C13.3113 4.99006 13.149 4.90909 12.9615 4.90909H11.5769V3.27273C11.5769 3.05114 11.5084 2.85938 11.3714 2.69744C11.2344 2.53551 11.0721 2.45455 10.8846 2.45455C10.6971 2.45455 10.5349 2.53551 10.3978 2.69744C10.2608 2.85938 10.1923 3.05114 10.1923 3.27273V4.90909H8.80769C8.62019 4.90909 8.45793 4.99006 8.32091 5.15199C8.18389 5.31392 8.11538 5.50568 8.11538 5.72727C8.11538 5.94886 8.18389 6.14062 8.32091 6.30256C8.45793 6.46449 8.62019 6.54545 8.80769 6.54545H10.1923V8.18182C10.1923 8.40341 10.2608 8.59517 10.3978 8.7571C10.5349 8.91903 10.6971 9 10.8846 9C11.0721 9 11.2344 8.91903 11.3714 8.7571C11.5084 8.59517 11.5769 8.40341 11.5769 8.18182V6.54545H12.9615C13.149 6.54545 13.3113 6.46449 13.4483 6.30256C13.5853 6.14062 13.6538 5.94886 13.6538 5.72727ZM7.42308 16.3636C7.42308 16.8153 7.28786 17.201 7.01743 17.5206C6.74699 17.8402 6.42067 18 6.03846 18C5.65625 18 5.32993 17.8402 5.0595 17.5206C4.78906 17.201 4.65385 16.8153 4.65385 16.3636C4.65385 15.9119 4.78906 15.5263 5.0595 15.2067C5.32993 14.8871 5.65625 14.7273 6.03846 14.7273C6.42067 14.7273 6.74699 14.8871 7.01743 15.2067C7.28786 15.5263 7.42308 15.9119 7.42308 16.3636ZM17.1154 16.3636C17.1154 16.8153 16.9802 17.201 16.7097 17.5206C16.4393 17.8402 16.113 18 15.7308 18C15.3486 18 15.0222 17.8402 14.7518 17.5206C14.4814 17.201 14.3462 16.8153 14.3462 16.3636C14.3462 15.9119 14.4814 15.5263 14.7518 15.2067C15.0222 14.8871 15.3486 14.7273 15.7308 14.7273C16.113 14.7273 16.4393 14.8871 16.7097 15.2067C16.9802 15.5263 17.1154 15.9119 17.1154 16.3636ZM18.5 2.45455V9C18.5 9.20455 18.4423 9.38565 18.3269 9.54332C18.2115 9.70099 18.0637 9.79261 17.8834 9.81818L6.59014 11.3778C6.59736 11.4375 6.61358 11.5291 6.63882 11.6527C6.66406 11.7763 6.6857 11.8892 6.70373 11.9915C6.72176 12.0938 6.73077 12.1875 6.73077 12.2727C6.73077 12.4091 6.64423 12.6818 6.47115 13.0909H16.4231C16.6106 13.0909 16.7728 13.1719 16.9099 13.3338C17.0469 13.4957 17.1154 13.6875 17.1154 13.9091C17.1154 14.1307 17.0469 14.3224 16.9099 14.4844C16.7728 14.6463 16.6106 14.7273 16.4231 14.7273H5.34615C5.15865 14.7273 4.99639 14.6463 4.85938 14.4844C4.72236 14.3224 4.65385 14.1307 4.65385 13.9091C4.65385 13.7898 4.69351 13.6214 4.77284 13.4041C4.85216 13.1868 4.95853 12.9332 5.09195 12.6435C5.22536 12.3537 5.29928 12.1918 5.3137 12.1577L3.39904 1.63636H1.19231C1.00481 1.63636 0.842548 1.5554 0.705529 1.39347C0.56851 1.23153 0.5 1.03977 0.5 0.818182C0.5 0.596591 0.56851 0.40483 0.705529 0.242898C0.842548 0.0809659 1.00481 0 1.19231 0H3.96154C4.07692 0 4.17969 0.0276989 4.26983 0.0830966C4.35998 0.138494 4.43209 0.204545 4.48618 0.28125C4.54026 0.357955 4.58714 0.462358 4.6268 0.59446C4.66647 0.726562 4.69351 0.839489 4.70793 0.933239C4.72236 1.02699 4.74219 1.1527 4.76743 1.31037C4.79267 1.46804 4.80889 1.5767 4.81611 1.63636H17.8077C17.9952 1.63636 18.1575 1.71733 18.2945 1.87926C18.4315 2.04119 18.5 2.23295 18.5 2.45455Z" fill="white"/>
</svg>
