<svg width="33" height="9" viewBox="0 0 33 9" fill="none" xmlns="http://www.w3.org/2000/svg">
<path fill-rule="evenodd" clip-rule="evenodd" d="M0.900781 6.68643C1.29851 6.91844 1.31162 6.95673 1.13093 7.35794C0.780421 8.13654 0.862051 8.39195 1.5221 8.58029C2.27705 8.79557 3.51448 8.55973 4.23114 8.06378C4.50255 7.87601 5.1267 7.46615 5.61828 7.15315L6.51206 6.58389C22.2166 6.58783 13.8755 6.57793 32.5 6.57793L32.5 6.22338L32.5 5.86883L20.2114 5.86883L15.32 5.86883L14.6971 4.67187C13.7094 2.77432 12.0701 1.31626 10.0919 0.575961C9.15819 0.226516 8.9617 0.256016 9.08236 0.727852C9.29747 1.56899 10.2694 3.19212 11.0499 4.01312C11.6486 4.64298 12.1923 5.34118 13.153 5.86486L8.2087 5.86684L6.53813 5.86883L5.78035 5.41515C5.3634 5.16569 4.8042 4.78447 4.53771 4.56806C3.46056 3.69388 1.06851 3.49774 0.952769 4.27421C0.926551 4.45021 1.01057 4.79554 1.13957 5.04174C1.26857 5.28794 1.35705 5.4984 1.3362 5.50932C0.372262 6.01576 0.262029 6.31358 0.900781 6.68643ZM4.28536 5.93151C3.77561 5.61355 2.72677 5.51215 2.07282 5.71765C0.984946 6.05958 1.06226 6.42406 2.28867 6.73635C2.83268 6.8749 3.10751 6.87278 3.65793 6.72614C4.59446 6.47639 4.78081 6.24054 4.28536 5.93151ZM2.37626 7.29441C1.90419 7.19343 1.79054 7.21584 1.66794 7.43396C1.35795 7.98536 1.4804 8.1381 2.22938 8.13483C3.03691 8.13129 3.98982 7.76256 4.42658 7.28477L4.7245 6.95886L4.3521 7.06168C3.27212 7.35965 2.89092 7.40446 2.37626 7.29441ZM4.42658 5.162C3.98982 4.68421 3.03691 4.31548 2.22938 4.31193C1.65185 4.30938 1.5227 4.35448 1.52628 4.55699C1.53641 5.10697 1.78279 5.27929 2.37775 5.15207C2.89077 5.04231 3.27301 5.0874 4.3521 5.38508L4.7245 5.4879L4.42658 5.162ZM12.6457 2.67859C11.9329 2.01076 10.3258 1.04695 9.92504 1.04695C9.67881 1.04695 9.71873 1.17118 10.297 2.20307C10.5878 2.72199 11.1227 3.44186 11.486 3.80265C12.1354 4.44794 13.3941 5.30155 13.696 5.30155C13.7806 5.30155 13.2554 4.73285 12.5286 4.03779C11.528 3.08065 11.232 2.71276 11.3089 2.52173C11.3926 2.31425 11.6596 2.50571 12.8195 3.60552C13.5946 4.34029 14.2286 4.89027 14.2286 4.82759C14.2286 4.5326 13.3469 3.33564 12.6457 2.67859Z" fill="#383838"/>
</svg>
