<svg width="33" height="9" viewBox="0 0 33 9" fill="none" xmlns="http://www.w3.org/2000/svg">
<path fill-rule="evenodd" clip-rule="evenodd" d="M32.0992 6.68643C31.7015 6.91844 31.6884 6.95673 31.8691 7.35794C32.2196 8.13654 32.1379 8.39195 31.4779 8.58029C30.723 8.79557 29.4855 8.55973 28.7689 8.06378C28.4974 7.87601 27.8733 7.46615 27.3817 7.15315L26.4879 6.58389C10.7834 6.58783 19.1245 6.57793 0.5 6.57793L0.5 6.22338L0.5 5.86883L12.7886 5.86883L17.68 5.86883L18.3029 4.67187C19.2906 2.77432 20.9299 1.31626 22.9081 0.575961C23.8418 0.226516 24.0383 0.256016 23.9176 0.727852C23.7025 1.56899 22.7306 3.19212 21.9501 4.01312C21.3514 4.64298 20.8077 5.34118 19.847 5.86486L24.7913 5.86684L26.4619 5.86883L27.2196 5.41515C27.6366 5.16569 28.1958 4.78447 28.4623 4.56806C29.5394 3.69388 31.9315 3.49774 32.0472 4.27421C32.0734 4.45021 31.9894 4.79554 31.8604 5.04174C31.7314 5.28794 31.6429 5.4984 31.6638 5.50932C32.6277 6.01576 32.738 6.31358 32.0992 6.68643ZM28.7146 5.93151C29.2244 5.61355 30.2732 5.51215 30.9272 5.71765C32.0151 6.05958 31.9377 6.42406 30.7113 6.73635C30.1673 6.8749 29.8925 6.87278 29.3421 6.72614C28.4055 6.47639 28.2192 6.24054 28.7146 5.93151ZM30.6237 7.29441C31.0958 7.19343 31.2095 7.21584 31.3321 7.43396C31.6421 7.98536 31.5196 8.1381 30.7706 8.13483C29.9631 8.13129 29.0102 7.76256 28.5734 7.28477L28.2755 6.95886L28.6479 7.06168C29.7279 7.35965 30.1091 7.40446 30.6237 7.29441ZM28.5734 5.162C29.0102 4.68421 29.9631 4.31548 30.7706 4.31193C31.3481 4.30938 31.4773 4.35448 31.4737 4.55699C31.4636 5.10697 31.2172 5.27929 30.6223 5.15207C30.1092 5.04231 29.727 5.0874 28.6479 5.38508L28.2755 5.4879L28.5734 5.162ZM20.3543 2.67859C21.0671 2.01076 22.6742 1.04695 23.075 1.04695C23.3212 1.04695 23.2813 1.17118 22.703 2.20307C22.4122 2.72199 21.8773 3.44186 21.514 3.80265C20.8646 4.44794 19.6059 5.30155 19.304 5.30155C19.2194 5.30155 19.7446 4.73285 20.4714 4.03779C21.472 3.08065 21.768 2.71276 21.6911 2.52173C21.6074 2.31425 21.3404 2.50571 20.1805 3.60552C19.4054 4.34029 18.7714 4.89027 18.7714 4.82759C18.7714 4.5326 19.6531 3.33564 20.3543 2.67859Z" fill="#383838"/>
</svg>
