<svg width="16" height="17" viewBox="0 0 16 17" fill="none" xmlns="http://www.w3.org/2000/svg">
<g clip-path="url(#clip0_657_8860)">
<path d="M14.2441 16.933H1.75562C1.42847 16.933 1.16333 16.6678 1.16333 16.3407V6.79102H14.8365V16.3407C14.8365 16.6678 14.5713 16.933 14.2441 16.933Z" fill="#FFC73B"/>
<path d="M1.16333 6.79102H14.8365V8.7782H1.16333V6.79102Z" fill="#EFB025"/>
<path d="M16 4.71814V7.18005C16 7.44299 15.7866 7.65601 15.5237 7.65601H0.475952C0.213013 7.65601 0 7.44299 0 7.18005V4.71814C0 4.4552 0.213013 4.24219 0.475952 4.24219H15.5237C15.7866 4.24219 16 4.4552 16 4.71814Z" fill="#FFC73B"/>
<path d="M7.45593 5.37549C7.35205 5.49646 7.25012 5.61914 7.15063 5.74316C6.77991 6.20447 6.44055 6.68787 6.13379 7.18958C6.03943 7.34387 5.94836 7.49976 5.85999 7.65747H2.61499C2.80457 7.22729 3.01245 6.80505 3.23767 6.39233C3.64612 5.64355 4.11218 4.92505 4.63293 4.24365C4.75732 4.08093 4.88464 3.92017 5.01514 3.76184C5.09326 3.66638 5.17273 3.57227 5.2533 3.47852C5.54944 3.73364 5.84534 3.98853 6.1416 4.24365C6.1875 4.28296 6.2334 4.32275 6.27917 4.36218C6.62878 4.66321 6.97839 4.96411 7.32788 5.2655C7.37073 5.30188 7.41321 5.33887 7.45593 5.37549Z" fill="#EFB025"/>
<path d="M12.2977 7.65747H9.05249C8.96448 7.49976 8.87305 7.34387 8.77869 7.18958C8.47192 6.68787 8.1322 6.20447 7.76184 5.74316C7.66199 5.61914 7.56006 5.49646 7.45605 5.37549C7.4989 5.33887 7.54138 5.30212 7.58423 5.2655C7.93408 4.96411 8.28369 4.66284 8.63318 4.36218C8.67908 4.32275 8.72498 4.28296 8.77087 4.24365C9.06702 3.98853 9.36328 3.73364 9.65918 3.47852C9.73975 3.57202 9.81921 3.66638 9.89734 3.7616C10.0281 3.92017 10.1555 4.08093 10.2795 4.24365C10.8003 4.92505 11.2664 5.64355 11.675 6.39233C11.9003 6.80505 12.1082 7.22729 12.2977 7.65747Z" fill="#EFB025"/>
<path d="M7.99976 5.37561C7.89575 5.49646 7.79382 5.61914 7.69434 5.74316C7.32373 6.20447 6.98425 6.68787 6.67749 7.1897C5.70361 8.78162 5.05676 10.5599 4.78394 12.4213C4.3739 11.8774 3.99548 11.2891 3.65503 10.6599C3.05615 11.0505 2.47083 11.4973 1.90723 12C2.19666 10.0256 2.83435 8.12793 3.78149 6.39233C4.28735 5.46484 4.88184 4.58362 5.55884 3.76184C5.63696 3.66638 5.71643 3.57239 5.797 3.47852C6.13904 3.77307 6.48084 4.06763 6.823 4.36218C7.17249 4.66321 7.5221 4.96411 7.8717 5.2655C7.91443 5.30188 7.95691 5.33887 7.99976 5.37561Z" fill="#FF4440"/>
<path d="M14.0925 12C13.5289 11.4973 12.9436 11.0505 12.3447 10.6599C12.0043 11.2891 11.6259 11.8774 11.2158 12.4213C10.943 10.5599 10.2963 8.78162 9.32227 7.1897C9.0155 6.68787 8.67578 6.20447 8.30542 5.74316C8.20557 5.61914 8.10364 5.49646 7.99976 5.37561C8.04248 5.33887 8.08496 5.30212 8.12781 5.2655C8.47766 4.96411 8.82727 4.66284 9.17688 4.36218C9.51892 4.06726 9.86108 3.77307 10.2028 3.47852C10.2833 3.57202 10.3628 3.66638 10.4409 3.7616C11.118 4.58337 11.7125 5.4646 12.2186 6.39233C13.1655 8.12793 13.8031 10.0256 14.0925 12Z" fill="#FF4440"/>
<path d="M6.72607 5.375H9.2738V7.65674H6.72607V5.375Z" fill="#FF4440"/>
<path d="M12.2186 6.39246L9.32227 7.18982C9.0155 6.68799 8.67578 6.20459 8.30542 5.74329L8.12781 5.26562L7.99976 4.92114L9.17688 4.3623L10.4409 3.76172C11.118 4.5835 11.7125 5.46472 12.2186 6.39246Z" fill="#EA2F2F"/>
<path d="M7.99976 4.9209L7.8717 5.26538L7.69434 5.74304C7.32373 6.20435 6.98425 6.68774 6.67749 7.18958L3.78149 6.39221C4.28735 5.46472 4.88184 4.5835 5.55884 3.76172L6.823 4.36206L7.99976 4.9209Z" fill="#EA2F2F"/>
<path d="M12.6224 1.05405L8 3.24924L8.88794 5.6373L13.8218 4.27927C14.467 4.10166 14.8215 3.40915 14.5883 2.78184L14.181 1.68686C13.9479 1.05955 13.2271 0.766943 12.6224 1.05405Z" fill="#FF4440"/>
<path d="M3.37749 1.05405L7.99993 3.24924L7.11199 5.6373L2.17828 4.27927C1.53301 4.10166 1.17852 3.40915 1.4118 2.78184L1.8189 1.68686C2.05218 1.05955 2.77288 0.766943 3.37749 1.05405Z" fill="#FF4440"/>
<path d="M9.10367 4.20921C9.01969 4.20921 8.93729 4.16771 8.88883 4.09166C8.81302 3.97313 8.84757 3.81566 8.9661 3.73985C9.00113 3.71751 9.83365 3.18773 10.7895 2.80113C12.1674 2.24376 13.0876 2.27366 13.5241 2.89C13.6055 3.00487 13.5783 3.16392 13.4634 3.24522C13.3485 3.32652 13.1896 3.29942 13.1083 3.18455C12.5165 2.3491 10.0559 3.64818 9.24064 4.16917C9.19815 4.19627 9.15067 4.20921 9.10367 4.20921Z" fill="#EA2F2F"/>
<path d="M6.87092 4.20921C6.82392 4.20921 6.77643 4.19627 6.73395 4.16917C5.91865 3.64818 3.45807 2.3491 2.86628 3.18455C2.78486 3.29942 2.62592 3.32652 2.51105 3.24522C2.39631 3.1638 2.36909 3.00487 2.45051 2.89C2.88703 2.27366 3.80707 2.24376 5.18513 2.80113C6.14094 3.1876 6.97346 3.71751 7.00849 3.73985C7.12702 3.81566 7.16157 3.97313 7.08588 4.09166C7.03718 4.16771 6.9549 4.20921 6.87092 4.20921Z" fill="#EA2F2F"/>
<path d="M8.72473 2.42773H7.27502C6.8783 2.42773 6.55664 2.74939 6.55664 3.14624V5.25232C6.55664 5.64917 6.8783 5.97083 7.27502 5.97083H8.72473C9.12146 5.97083 9.44312 5.64917 9.44312 5.25232V3.14624C9.44312 2.74939 9.12146 2.42773 8.72473 2.42773Z" fill="#EA2F2F"/>
<path d="M6.72607 7.65625H9.2738V16.932H6.72607V7.65625Z" fill="#FF4440"/>
<path d="M6.72607 7.65625H9.2738V8.77722H6.72607V7.65625Z" fill="#EA2F2F"/>
</g>
<defs>
<clipPath id="clip0_657_8860">
<rect width="16" height="16" fill="white" transform="translate(0 0.943359)"/>
</clipPath>
</defs>
</svg>
