<svg width="18" height="18" viewBox="0 0 18 18" fill="none" xmlns="http://www.w3.org/2000/svg">
<path d="M13.1665 10.6673C13.6267 10.6673 13.9998 10.2942 13.9998 9.83398C13.9998 9.37375 13.6267 9.00065 13.1665 9.00065C12.7063 9.00065 12.3332 9.37375 12.3332 9.83398C12.3332 10.2942 12.7063 10.6673 13.1665 10.6673Z" fill="#697A8D"/>
<path d="M13.1665 14.0007C13.6267 14.0007 13.9998 13.6276 13.9998 13.1673C13.9998 12.7071 13.6267 12.334 13.1665 12.334C12.7063 12.334 12.3332 12.7071 12.3332 13.1673C12.3332 13.6276 12.7063 14.0007 13.1665 14.0007Z" fill="#697A8D"/>
<path d="M9.83317 9.83398C9.83317 10.2942 9.46007 10.6673 8.99984 10.6673C8.5396 10.6673 8.1665 10.2942 8.1665 9.83398C8.1665 9.37375 8.5396 9.00065 8.99984 9.00065C9.46007 9.00065 9.83317 9.37375 9.83317 9.83398Z" fill="#697A8D"/>
<path d="M9.83317 13.1673C9.83317 13.6276 9.46007 14.0007 8.99984 14.0007C8.5396 14.0007 8.1665 13.6276 8.1665 13.1673C8.1665 12.7071 8.5396 12.334 8.99984 12.334C9.46007 12.334 9.83317 12.7071 9.83317 13.1673Z" fill="#697A8D"/>
<path d="M4.83317 10.6673C5.29341 10.6673 5.6665 10.2942 5.6665 9.83398C5.6665 9.37375 5.29341 9.00065 4.83317 9.00065C4.37293 9.00065 3.99984 9.37375 3.99984 9.83398C3.99984 10.2942 4.37293 10.6673 4.83317 10.6673Z" fill="#697A8D"/>
<path d="M4.83317 14.0007C5.29341 14.0007 5.6665 13.6276 5.6665 13.1673C5.6665 12.7071 5.29341 12.334 4.83317 12.334C4.37293 12.334 3.99984 12.7071 3.99984 13.1673C3.99984 13.6276 4.37293 14.0007 4.83317 14.0007Z" fill="#697A8D"/>
<path fill-rule="evenodd" clip-rule="evenodd" d="M4.83317 0.458984C5.17835 0.458984 5.45817 0.738806 5.45817 1.08398V1.71958C6.00984 1.70897 6.61761 1.70898 7.28605 1.70898H10.7135C11.382 1.70898 11.9898 1.70897 12.5415 1.71958V1.08398C12.5415 0.738806 12.8213 0.458984 13.1665 0.458984C13.5117 0.458984 13.7915 0.738806 13.7915 1.08398V1.77322C14.0081 1.78974 14.2133 1.8105 14.4074 1.8366C15.3844 1.96795 16.1752 2.24472 16.7988 2.86835C17.4224 3.49199 17.6992 4.28278 17.8306 5.2598C17.9582 6.20914 17.9582 7.42215 17.9582 8.9536V10.7143C17.9582 12.2458 17.9582 13.4588 17.8306 14.4082C17.6992 15.3852 17.4224 16.176 16.7988 16.7996C16.1752 17.4233 15.3844 17.7 14.4074 17.8314C13.458 17.959 12.245 17.959 10.7136 17.959H7.28616C5.75471 17.959 4.54166 17.959 3.59232 17.8314C2.6153 17.7 1.82451 17.4233 1.20087 16.7996C0.577237 16.176 0.300473 15.3852 0.169117 14.4082C0.0414807 13.4588 0.0414911 12.2458 0.0415042 10.7143V8.95364C0.0414911 7.42217 0.0414807 6.20914 0.169117 5.2598C0.300473 4.28278 0.577237 3.49199 1.20087 2.86835C1.82451 2.24472 2.6153 1.96795 3.59232 1.8366C3.78642 1.8105 3.99155 1.78974 4.20817 1.77322V1.08398C4.20817 0.738806 4.48799 0.458984 4.83317 0.458984ZM3.75888 3.07545C2.92047 3.18817 2.43743 3.39956 2.08476 3.75224C1.73208 4.10491 1.52069 4.58795 1.40797 5.42636C1.38888 5.56835 1.37292 5.71783 1.35957 5.87565H16.6401C16.6268 5.71783 16.6108 5.56835 16.5917 5.42636C16.479 4.58795 16.2676 4.10491 15.9149 3.75224C15.5622 3.39956 15.0792 3.18817 14.2408 3.07545C13.3844 2.96031 12.2555 2.95898 10.6665 2.95898H7.33317C5.74415 2.95898 4.61527 2.96031 3.75888 3.07545ZM1.2915 9.00065C1.2915 8.28897 1.29177 7.66959 1.30241 7.12565H16.6973C16.7079 7.66959 16.7082 8.28897 16.7082 9.00065V10.6673C16.7082 12.2563 16.7068 13.3852 16.5917 14.2416C16.479 15.08 16.2676 15.5631 15.9149 15.9157C15.5622 16.2684 15.0792 16.4798 14.2408 16.5925C13.3844 16.7077 12.2555 16.709 10.6665 16.709H7.33317C5.74415 16.709 4.61526 16.7077 3.75888 16.5925C2.92047 16.4798 2.43743 16.2684 2.08476 15.9157C1.73208 15.5631 1.52069 15.08 1.40797 14.2416C1.29283 13.3852 1.2915 12.2563 1.2915 10.6673V9.00065Z" fill="#697A8D"/>
</svg>
