<svg width="40" height="40" viewBox="0 0 40 40" fill="none" xmlns="http://www.w3.org/2000/svg">
<path d="M19.9998 25.3327C22.9454 25.3327 25.3332 22.9449 25.3332 19.9993C25.3332 17.0538 22.9454 14.666 19.9998 14.666C17.0543 14.666 14.6665 17.0538 14.6665 19.9993C14.6665 22.9449 17.0543 25.3327 19.9998 25.3327Z" fill="#697A8D" fill-opacity="0.5"/>
<path d="M15.0002 3.33398L11.9502 6.66732H6.66683C4.8335 6.66732 3.3335 8.16732 3.3335 10.0007V30.0007C3.3335 31.834 4.8335 33.334 6.66683 33.334H33.3335C35.1668 33.334 36.6668 31.834 36.6668 30.0007V10.0007C36.6668 8.16732 35.1668 6.66732 33.3335 6.66732H28.0502L25.0002 3.33398H15.0002ZM20.0002 28.334C15.4002 28.334 11.6668 24.6007 11.6668 20.0007C11.6668 15.4007 15.4002 11.6673 20.0002 11.6673C24.6002 11.6673 28.3335 15.4007 28.3335 20.0007C28.3335 24.6007 24.6002 28.334 20.0002 28.334Z" fill="#697A8D" fill-opacity="0.5"/>
</svg>
