<svg width="14" height="14" viewBox="0 0 14 14" fill="none" xmlns="http://www.w3.org/2000/svg">
<path d="M13.2887 11.961C13.4649 12.1371 13.5638 12.376 13.5638 12.6251C13.5638 12.8741 13.4649 13.113 13.2887 13.2891C13.1126 13.4652 12.8737 13.5642 12.6247 13.5642C12.3756 13.5642 12.1367 13.4652 11.9606 13.2891L7.00045 8.32741L2.03874 13.2876C1.86262 13.4637 1.62374 13.5626 1.37467 13.5626C1.1256 13.5626 0.886731 13.4637 0.710611 13.2876C0.53449 13.1114 0.435547 12.8726 0.435547 12.6235C0.435547 12.3744 0.53449 12.1356 0.710611 11.9594L5.67233 6.99928L0.712173 2.03756C0.536053 1.86144 0.437109 1.62257 0.437109 1.3735C0.437109 1.12443 0.536053 0.885559 0.712173 0.709439C0.888293 0.533318 1.12716 0.434375 1.37624 0.434375C1.62531 0.434375 1.86418 0.533318 2.0403 0.709439L7.00045 5.67116L11.9622 0.708657C12.1383 0.532537 12.3772 0.433594 12.6262 0.433594C12.8753 0.433594 13.1142 0.532537 13.2903 0.708657C13.4664 0.884778 13.5654 1.12365 13.5654 1.37272C13.5654 1.62179 13.4664 1.86066 13.2903 2.03678L8.32858 6.99928L13.2887 11.961Z" fill="#383838"/>
</svg>
