<svg width="18" height="15" viewBox="0 0 18 15" fill="none" xmlns="http://www.w3.org/2000/svg">
<path d="M17.7 7.38125L15.825 3.00625C15.7772 2.89328 15.6971 2.79689 15.5949 2.7291C15.4926 2.6613 15.3727 2.6251 15.25 2.625H13.375V1.375C13.375 1.20924 13.3092 1.05027 13.1919 0.933058C13.0747 0.815848 12.9158 0.75 12.75 0.75H0.875C0.70924 0.75 0.550268 0.815848 0.433058 0.933058C0.315848 1.05027 0.25 1.20924 0.25 1.375V12C0.25 12.1658 0.315848 12.3247 0.433058 12.4419C0.550268 12.5592 0.70924 12.625 0.875 12.625H2.2125C2.35643 13.1546 2.67063 13.6221 3.10662 13.9555C3.54262 14.2888 4.07619 14.4694 4.625 14.4694C5.17381 14.4694 5.70738 14.2888 6.14338 13.9555C6.57937 13.6221 6.89357 13.1546 7.0375 12.625H10.9625C11.1064 13.1546 11.4206 13.6221 11.8566 13.9555C12.2926 14.2888 12.8262 14.4694 13.375 14.4694C13.9238 14.4694 14.4574 14.2888 14.8934 13.9555C15.3294 13.6221 15.6436 13.1546 15.7875 12.625H17.125C17.2908 12.625 17.4497 12.5592 17.5669 12.4419C17.6842 12.3247 17.75 12.1658 17.75 12V7.625C17.7498 7.54122 17.7328 7.45833 17.7 7.38125ZM13.375 3.875H14.8375L16.175 7H13.375V3.875ZM4.625 13.25C4.37777 13.25 4.1361 13.1767 3.93054 13.0393C3.72498 12.902 3.56476 12.7068 3.47015 12.4784C3.37554 12.2499 3.35079 11.9986 3.39902 11.7561C3.44725 11.5137 3.5663 11.2909 3.74112 11.1161C3.91593 10.9413 4.13866 10.8222 4.38114 10.774C4.62361 10.7258 4.87495 10.7505 5.10335 10.8451C5.33176 10.9398 5.52699 11.1 5.66434 11.3055C5.80169 11.5111 5.875 11.7528 5.875 12C5.875 12.3315 5.7433 12.6495 5.50888 12.8839C5.27446 13.1183 4.95652 13.25 4.625 13.25ZM10.9625 11.375H7.0375C6.89357 10.8454 6.57937 10.3779 6.14338 10.0445C5.70738 9.71122 5.17381 9.53062 4.625 9.53062C4.07619 9.53062 3.54262 9.71122 3.10662 10.0445C2.67063 10.3779 2.35643 10.8454 2.2125 11.375H1.5V2H12.125V9.85C11.8404 10.0152 11.5912 10.2349 11.3917 10.4966C11.1922 10.7583 11.0464 11.0568 10.9625 11.375ZM13.375 13.25C13.1278 13.25 12.8861 13.1767 12.6805 13.0393C12.475 12.902 12.3148 12.7068 12.2201 12.4784C12.1255 12.2499 12.1008 11.9986 12.149 11.7561C12.1972 11.5137 12.3163 11.2909 12.4911 11.1161C12.6659 10.9413 12.8887 10.8222 13.1311 10.774C13.3736 10.7258 13.6249 10.7505 13.8534 10.8451C14.0818 10.9398 14.277 11.1 14.4143 11.3055C14.5517 11.5111 14.625 11.7528 14.625 12C14.625 12.3315 14.4933 12.6495 14.2589 12.8839C14.0245 13.1183 13.7065 13.25 13.375 13.25ZM16.5 11.375H15.7875C15.6493 10.8397 15.3375 10.3653 14.901 10.0261C14.4645 9.68679 13.9278 9.50179 13.375 9.5V8.25H16.5V11.375Z" fill="#CF5763"/>
</svg>
