<svg width="16" height="17" viewBox="0 0 16 17" fill="none" xmlns="http://www.w3.org/2000/svg">
<path fill-rule="evenodd" clip-rule="evenodd" d="M11.0091 14.8348H5.44392C3.39968 14.8348 1.83141 14.0965 2.27688 11.1247L2.79556 7.09722C3.07016 5.61438 4.01601 5.04688 4.84591 5.04688H11.6316C12.4737 5.04688 13.3646 5.6571 13.6819 7.09722L14.2006 11.1247C14.5789 13.7608 13.0534 14.8348 11.0091 14.8348Z" stroke="#CF5763" stroke-linecap="round" stroke-linejoin="round"/>
<path d="M11.1007 4.8998C11.1007 3.30909 9.81114 2.01956 8.22042 2.01956V2.01956C7.45442 2.01631 6.71868 2.31833 6.17589 2.85883C5.63309 3.39934 5.32797 4.13379 5.32797 4.8998H5.32797" stroke="#CF5763" stroke-linecap="round" stroke-linejoin="round"/>
<path d="M10.1975 7.90277H10.167" stroke="#CF5763" stroke-linecap="round" stroke-linejoin="round"/>
<path d="M6.31045 7.90277H6.27994" stroke="#CF5763" stroke-linecap="round" stroke-linejoin="round"/>
</svg>
