<svg width="20" height="20" viewBox="0 0 20 20" fill="none" xmlns="http://www.w3.org/2000/svg">
<path d="M18.41 10.0083C18.41 9.30195 18.3515 8.78649 18.2249 8.25195H9.99438V11.4401H14.8255C14.7281 12.2324 14.2022 13.4256 13.0333 14.2274L13.0169 14.3341L15.6193 16.3098L15.7996 16.3274C17.4554 14.8288 18.41 12.6237 18.41 10.0083Z" fill="#4285F4"/>
<path d="M9.99388 18.4095C12.3607 18.4095 14.3477 17.6458 15.799 16.3285L13.0328 14.2285C12.2926 14.7344 11.299 15.0876 9.99388 15.0876C7.67572 15.0876 5.70821 13.589 5.00685 11.5176L4.90405 11.5261L2.19811 13.5784L2.16272 13.6748C3.60426 16.4812 6.56529 18.4095 9.99388 18.4095Z" fill="#34A853"/>
<path d="M5.00733 11.5172C4.82227 10.9827 4.71517 10.4099 4.71517 9.81811C4.71517 9.22625 4.82227 8.65355 4.99759 8.11901L4.99269 8.00517L2.25283 5.91992L2.16319 5.96171C1.56906 7.12627 1.22815 8.43402 1.22815 9.81811C1.22815 11.2022 1.56906 12.5099 2.16319 13.6744L5.00733 11.5172Z" fill="#FBBC05"/>
<path d="M9.99392 4.54836C11.64 4.54836 12.7504 5.24517 13.3835 5.82749L15.8575 3.4602C14.3381 2.07611 12.3608 1.22656 9.99392 1.22656C6.56532 1.22656 3.60427 3.15473 2.16272 5.96107L4.99713 8.11837C5.70823 6.04701 7.67575 4.54836 9.99392 4.54836Z" fill="#EB4335"/>
</svg>
