<svg width="20" height="20" viewBox="0 0 20 20" fill="none" xmlns="http://www.w3.org/2000/svg">
<path d="M15.0191 5.57684C16.2161 5.57684 17.1881 4.60106 17.1881 3.40635C17.0805 0.530945 12.9594 0.531479 12.8502 3.40638C12.8502 4.60106 13.8253 5.57684 15.0191 5.57684Z" fill="white"/>
<path d="M18.5664 7.07205C18.1851 6.36523 17.6163 5.80542 16.935 5.43951C15.9584 6.44352 14.0798 6.44316 13.1033 5.43945C12.0945 6.00302 10.7777 7.31745 11.5063 8.56074C11.7813 9.01737 12.2626 9.28946 12.7939 9.28946H17.2444C18.3508 9.32599 19.1189 8.02681 18.5664 7.07205Z" fill="white"/>
<path d="M4.97339 5.57684C6.17038 5.57684 7.14235 4.60106 7.14235 3.40635C7.03473 0.530945 2.91362 0.531479 2.80443 3.40638C2.80443 4.60106 3.77952 5.57684 4.97339 5.57684Z" fill="white"/>
<path d="M8.48623 8.56075C9.2137 7.31703 7.90056 6.00356 6.88924 5.4395C5.91268 6.44352 4.03405 6.44316 3.05759 5.43945C2.04871 6.00302 0.731979 7.31745 1.46053 8.56074C1.73559 9.01737 2.21688 9.28946 2.74819 9.28946H7.19861C7.73305 9.28946 8.21433 9.01737 8.48623 8.56075Z" fill="white"/>
<path d="M7.82777 12.8658C7.82777 14.0605 8.80286 15.0363 9.99673 15.0363C12.8704 14.9266 12.8693 10.8026 9.99671 10.6953C8.80286 10.6953 7.82777 11.668 7.82777 12.8658Z" fill="white"/>
<path d="M11.9125 14.8985C10.936 15.9025 9.05738 15.9021 8.08092 14.8984C7.40273 15.2644 6.8308 15.8242 6.4495 16.531C5.89582 17.4856 6.66874 18.7849 7.77155 18.7484L12.2219 18.7484C13.3284 18.785 14.0965 17.4858 13.5439 16.531C13.1627 15.8242 12.5939 15.2644 11.9125 14.8985Z" fill="white"/>
<path d="M8.50601 5.95495C9.47173 5.67662 10.5187 5.67662 11.4844 5.95495C11.6407 5.77668 11.8063 5.61094 11.9845 5.45769C10.7094 5.00733 9.28109 5.01046 8.00597 5.45769C8.18724 5.6078 8.35287 5.77357 8.50601 5.95495Z" fill="white"/>
<path d="M4.68378 11.0493C4.68378 10.6647 4.72441 10.2831 4.80567 9.91406H4.16809C4.09622 10.2862 4.05872 10.6647 4.05872 11.0493C4.05872 12.857 4.88693 14.5553 6.26831 15.6624C6.3902 15.4935 6.52771 15.3371 6.67146 15.187C5.4276 14.1925 4.68378 12.6725 4.68378 11.0493Z" fill="white"/>
<path d="M15.1879 9.91406C15.2692 10.2831 15.3098 10.6647 15.3098 11.0493C15.3098 12.6725 14.566 14.1893 13.3252 15.187C13.469 15.3371 13.6034 15.4935 13.7284 15.6624C15.1098 14.5521 15.9349 12.857 15.9349 11.0493C15.9349 10.6647 15.8974 10.2862 15.8255 9.91406H15.1879Z" fill="white"/>
</svg>
