<svg width="18" height="18" viewBox="0 0 18 18" fill="none" xmlns="http://www.w3.org/2000/svg">
<path fill-rule="evenodd" clip-rule="evenodd" d="M8.95227 0.0410158H9.0479C10.9716 0.0410051 12.4791 0.0409966 13.6553 0.199138C14.8593 0.361004 15.8093 0.698788 16.555 1.44446C17.3006 2.19014 17.6384 3.14016 17.8003 4.3441C17.9584 5.52034 17.9584 7.02788 17.9584 8.95154V9.04716C17.9584 10.9708 17.9584 12.4784 17.8003 13.6546C17.6384 14.8585 17.3006 15.8086 16.555 16.5542C15.8093 17.2999 14.8593 17.6377 13.6553 17.7996C12.4791 17.9577 10.9716 17.9577 9.04789 17.9577H8.95227C7.02861 17.9577 5.52108 17.9577 4.34484 17.7996C3.14089 17.6377 2.19087 17.2999 1.4452 16.5542C0.69952 15.8086 0.361737 14.8585 0.19987 13.6546C0.041729 12.4784 0.0417375 10.9708 0.0417482 9.04716V8.95153C0.0417375 7.02787 0.041729 5.52034 0.19987 4.3441C0.361737 3.14016 0.69952 2.19014 1.4452 1.44446C2.19087 0.698788 3.14089 0.361004 4.34484 0.199138C5.52107 0.0409966 7.0286 0.0410051 8.95227 0.0410158ZM4.5114 1.43799C3.44606 1.58122 2.80379 1.85363 2.32908 2.32835C1.85436 2.80306 1.58195 3.44533 1.43872 4.51066C1.29308 5.59398 1.29175 7.01749 1.29175 8.99935C1.29175 10.9812 1.29308 12.4047 1.43872 13.488C1.58195 14.5534 1.85436 15.1956 2.32908 15.6704C2.80379 16.1451 3.44606 16.4175 4.5114 16.5607C5.59471 16.7064 7.01823 16.7077 9.00008 16.7077C10.9819 16.7077 12.4055 16.7064 13.4888 16.5607C14.5541 16.4175 15.1964 16.1451 15.6711 15.6704C16.1458 15.1956 16.4182 14.5534 16.5614 13.488C16.7071 12.4047 16.7084 10.9812 16.7084 8.99935C16.7084 7.01749 16.7071 5.59398 16.5614 4.51066C16.4182 3.44533 16.1458 2.80306 15.6711 2.32835C15.1964 1.85363 14.5541 1.58122 13.4888 1.43799C12.4055 1.29234 10.9819 1.29102 9.00008 1.29102C7.01823 1.29102 5.59471 1.29234 4.5114 1.43799ZM7.76445 4.3801C8.01441 4.61815 8.02405 5.01376 7.786 5.26372L5.40505 7.76372C5.28708 7.88758 5.12351 7.95768 4.95246 7.95768C4.78141 7.95768 4.61784 7.88758 4.49988 7.76372L3.5475 6.76372C3.30944 6.51376 3.31909 6.11815 3.56905 5.8801C3.819 5.64204 4.21461 5.65169 4.45267 5.90165L4.95246 6.42643L6.88083 4.40165C7.11888 4.15169 7.51449 4.14204 7.76445 4.3801ZM9.20841 6.49935C9.20841 6.15417 9.48824 5.87435 9.83341 5.87435H14.0001C14.3453 5.87435 14.6251 6.15417 14.6251 6.49935C14.6251 6.84453 14.3453 7.12435 14.0001 7.12435H9.83341C9.48824 7.12435 9.20841 6.84453 9.20841 6.49935ZM7.76445 10.2134C8.01441 10.4515 8.02405 10.8471 7.786 11.097L5.40505 13.5971C5.28708 13.7209 5.12351 13.791 4.95246 13.791C4.78141 13.791 4.61784 13.7209 4.49988 13.5971L3.5475 12.597C3.30944 12.3471 3.31909 11.9515 3.56905 11.7134C3.819 11.4754 4.21461 11.485 4.45267 11.735L4.95246 12.2598L6.88083 10.235C7.11888 9.98502 7.51449 9.97538 7.76445 10.2134ZM9.20841 12.3327C9.20841 11.9875 9.48824 11.7077 9.83341 11.7077H14.0001C14.3453 11.7077 14.6251 11.9875 14.6251 12.3327C14.6251 12.6779 14.3453 12.9577 14.0001 12.9577H9.83341C9.48824 12.9577 9.20841 12.6779 9.20841 12.3327Z" fill="#CF5763"/>
</svg>
