<svg width="20" height="20" viewBox="0 0 20 20" fill="none" xmlns="http://www.w3.org/2000/svg">
<path fill-rule="evenodd" clip-rule="evenodd" d="M3.54175 7.09488C3.54175 3.70988 6.4763 1.04102 10.0001 1.04102C13.5239 1.04102 16.4584 3.70988 16.4584 7.09488C16.4584 10.2708 14.4893 13.9994 11.3124 15.357C10.4784 15.7135 9.52179 15.7135 8.68776 15.357C5.51082 13.9994 3.54175 10.2708 3.54175 7.09488ZM10.0001 2.29102C7.08054 2.29102 4.79175 4.48332 4.79175 7.09488C4.79175 9.86849 6.54627 13.0825 9.17896 14.2076C9.69925 14.4299 10.3009 14.4299 10.8212 14.2076C13.4539 13.0825 15.2084 9.86849 15.2084 7.09488C15.2084 4.48332 12.9196 2.29102 10.0001 2.29102ZM10.0001 6.45768C9.42478 6.45768 8.95841 6.92405 8.95841 7.49935C8.95841 8.07465 9.42478 8.54102 10.0001 8.54102C10.5754 8.54102 11.0417 8.07465 11.0417 7.49935C11.0417 6.92405 10.5754 6.45768 10.0001 6.45768ZM7.70841 7.49935C7.70841 6.2337 8.73443 5.20768 10.0001 5.20768C11.2657 5.20768 12.2917 6.2337 12.2917 7.49935C12.2917 8.765 11.2657 9.79102 10.0001 9.79102C8.73443 9.79102 7.70841 8.765 7.70841 7.49935ZM2.99626 12.4965C3.22795 12.7524 3.20835 13.1476 2.95248 13.3793C2.4794 13.8077 2.29175 14.2177 2.29175 14.5827C2.29175 15.2191 2.89509 16.0034 4.364 16.6644C5.77425 17.299 7.76634 17.7077 10.0001 17.7077C12.2338 17.7077 14.2259 17.299 15.6362 16.6644C17.1051 16.0034 17.7084 15.2191 17.7084 14.5827C17.7084 14.2177 17.5208 13.8077 17.0477 13.3793C16.7918 13.1476 16.7722 12.7524 17.0039 12.4965C17.2356 12.2406 17.6308 12.221 17.8867 12.4527C18.5225 13.0285 18.9584 13.7503 18.9584 14.5827C18.9584 16.0174 17.6963 17.1081 16.1491 17.8043C14.5433 18.5269 12.3687 18.9577 10.0001 18.9577C7.63145 18.9577 5.45687 18.5269 3.85105 17.8043C2.30389 17.1081 1.04175 16.0174 1.04175 14.5827C1.04175 13.7503 1.47762 13.0285 2.11346 12.4527C2.36933 12.221 2.76457 12.2406 2.99626 12.4965Z" fill="#CF5763"/>
</svg>
