<svg width="21" height="34" viewBox="0 0 21 34" fill="none" xmlns="http://www.w3.org/2000/svg">
<path d="M6.25417 14.7322V12.4866C6.25417 11.3638 7.13638 10.4816 8.25918 10.4816H12.59C13.7128 10.4816 14.595 11.3638 14.595 12.4866V14.7322H16.6V12.4866C16.6 10.241 14.8356 8.47656 12.59 8.47656H8.25918C6.01357 8.47656 4.24916 10.241 4.24916 12.4866V14.7322H6.25417Z" fill="url(#paint0_linear_721_27118)"/>
<path d="M10.5048 33.0985C16.3072 33.0985 21.0111 28.3947 21.0111 22.5922C21.0111 16.7898 16.3072 12.0859 10.5048 12.0859C4.70235 12.0859 -0.00146484 16.7898 -0.00146484 22.5922C-0.00146484 28.3947 4.70235 33.0985 10.5048 33.0985Z" fill="url(#paint1_linear_721_27118)"/>
<path d="M10.5048 32.5382C15.9972 32.5382 20.4497 28.0857 20.4497 22.5933C20.4497 17.1009 15.9972 12.6484 10.5048 12.6484C5.0124 12.6484 0.559937 17.1009 0.559937 22.5933C0.559937 28.0857 5.0124 32.5382 10.5048 32.5382Z" fill="url(#paint2_linear_721_27118)"/>
<path d="M10.5048 31.0943C15.1999 31.0943 19.006 27.2882 19.006 22.5931C19.006 17.8979 15.1999 14.0918 10.5048 14.0918C5.80969 14.0918 2.00355 17.8979 2.00355 22.5931C2.00355 27.2882 5.80969 31.0943 10.5048 31.0943Z" fill="url(#paint3_linear_721_27118)"/>
<path opacity="0.45" d="M2.56495 23.1545C2.56495 18.5028 6.33437 14.6532 11.0662 14.6532C13.2316 14.6532 15.2366 15.5354 16.7604 16.8988C15.2366 15.2146 12.991 14.0918 10.5048 14.0918C5.85317 14.0918 2.00355 17.8612 2.00355 22.593C2.00355 25.0793 3.04615 27.3249 4.81056 28.8487C3.36695 27.4051 2.56495 25.4001 2.56495 23.1545Z" fill="#6C0D0F"/>
<path opacity="0.67" d="M15.8782 16.0977C17.0812 17.5413 18.204 19.8671 18.204 21.8721C18.204 26.5237 14.4346 30.3733 9.70279 30.3733C7.69778 30.3733 5.37197 29.2505 3.92836 28.0475C5.45217 29.9723 7.85818 31.1753 10.5048 31.1753C15.1564 31.1753 19.006 27.4059 19.006 22.6741C18.9258 19.9473 17.7228 17.6215 15.8782 16.0977Z" fill="#933116"/>
<path d="M11.6276 0.216797L7.85818 10.4825C7.69778 11.0439 8.01858 11.6053 8.66019 11.6053H9.46219L13.5524 0.216797H11.6276Z" fill="#1268C6"/>
<path d="M13.5524 0.216797L9.38199 11.5251H11.3068L15.5574 0.216797H13.5524Z" fill="#6C0D0F"/>
<path d="M15.5574 0.216797L12.3494 8.87845L11.387 11.5251H12.7504C12.9108 11.5251 13.1514 11.4449 13.2316 11.3647C13.3118 11.2845 13.392 11.1241 13.4722 11.0439L17.4822 0.216797L15.5574 0.216797Z" fill="#EB3723"/>
<path opacity="0.69" d="M14.5148 8.23685L13.4722 11.0439C13.392 11.2043 13.3118 11.2845 13.2316 11.3647C13.0712 11.5251 12.9108 11.5251 12.7504 11.5251H8.57998C8.01857 11.5251 7.61757 10.9637 7.77797 10.4023L11.5474 0.216797L14.5148 8.23685Z" fill="url(#paint4_linear_721_27118)"/>
<path d="M9.14139 0.216797H7.13638L11.3068 11.5251H12.6702C12.8306 11.5251 13.0712 11.4449 13.1514 11.3647L12.2692 8.87845L9.14139 0.216797Z" fill="#1268C6"/>
<path d="M5.21156 0.216797L9.38199 11.5251H11.387L7.13637 0.216797H5.21156Z" fill="#6C0D0F"/>
<path d="M3.20655 0.216797L7.21657 11.0439C7.29677 11.3647 7.61758 11.6053 8.01858 11.6053H9.38199L5.21156 0.216797H3.20655Z" fill="#EB3723"/>
<path d="M13.793 24.0364C13.793 25.7206 12.4296 26.9236 10.184 26.9236C8.90079 26.9236 7.53738 26.5226 6.73537 25.881L7.69778 24.1166C8.41958 24.8384 9.22159 25.2394 10.0236 25.2394C10.986 25.2394 11.5474 24.8384 11.5474 24.1166C11.5474 23.3948 10.986 23.074 10.0236 23.074H8.49978V21.871L10.585 19.866H7.13638V18.1016H13.3118V19.465L10.9058 21.7106L11.3068 21.7908C12.7504 21.7908 13.793 22.673 13.793 24.0364Z" fill="#6D2B07"/>
<defs>
<linearGradient id="paint0_linear_721_27118" x1="4.29969" y1="11.6066" x2="16.6494" y2="11.6066" gradientUnits="userSpaceOnUse">
<stop stop-color="#91410D"/>
<stop offset="1" stop-color="#CC8139"/>
</linearGradient>
<linearGradient id="paint1_linear_721_27118" x1="15.4416" y1="27.5873" x2="4.46176" y2="16.6075" gradientUnits="userSpaceOnUse">
<stop stop-color="#91410D"/>
<stop offset="1" stop-color="#CC8139"/>
</linearGradient>
<linearGradient id="paint2_linear_721_27118" x1="4.7472" y1="16.894" x2="18.0358" y2="30.1826" gradientUnits="userSpaceOnUse">
<stop stop-color="#91410D"/>
<stop offset="1" stop-color="#CC8139"/>
</linearGradient>
<linearGradient id="paint3_linear_721_27118" x1="20.7794" y1="32.926" x2="0.278264" y2="12.4248" gradientUnits="userSpaceOnUse">
<stop stop-color="#E1B69A"/>
<stop offset="1" stop-color="#CC8139"/>
</linearGradient>
<linearGradient id="paint4_linear_721_27118" x1="12.8466" y1="5.61702" x2="10.8816" y2="6.5714" gradientUnits="userSpaceOnUse">
<stop stop-color="white"/>
<stop offset="1" stop-color="#121E3D"/>
</linearGradient>
</defs>
</svg>
