<svg width="21" height="34" viewBox="0 0 21 34" fill="none" xmlns="http://www.w3.org/2000/svg">
<path d="M6.25562 14.9627V12.7171C6.25562 11.5942 7.13783 10.712 8.26063 10.712H12.5915C13.7143 10.712 14.5965 11.5942 14.5965 12.7171V14.9627H16.6015V12.7171C16.6015 10.4714 14.8371 8.70703 12.5915 8.70703H8.26063C6.01502 8.70703 4.25061 10.4714 4.25061 12.7171V14.9627H6.25562Z" fill="url(#paint0_linear_721_27053)"/>
<path d="M10.5063 33.3289C16.3087 33.3289 21.0125 28.6251 21.0125 22.8227C21.0125 17.0202 16.3087 12.3164 10.5063 12.3164C4.70381 12.3164 0 17.0202 0 22.8227C0 28.6251 4.70381 33.3289 10.5063 33.3289Z" fill="url(#paint1_linear_721_27053)"/>
<path d="M10.5063 32.7686C15.9987 32.7686 20.4511 28.3162 20.4511 22.8238C20.4511 17.3314 15.9987 12.8789 10.5063 12.8789C5.01387 12.8789 0.561401 17.3314 0.561401 22.8238C0.561401 28.3162 5.01387 32.7686 10.5063 32.7686Z" fill="url(#paint2_linear_721_27053)"/>
<path d="M10.5063 31.3248C15.2014 31.3248 19.0075 27.5186 19.0075 22.8235C19.0075 18.1284 15.2014 14.3223 10.5063 14.3223C5.81114 14.3223 2.005 18.1284 2.005 22.8235C2.005 27.5186 5.81114 31.3248 10.5063 31.3248Z" fill="url(#paint3_linear_721_27053)"/>
<path opacity="0.45" d="M2.56641 23.3849C2.56641 18.7333 6.33583 14.8837 11.0677 14.8837C13.2331 14.8837 15.2381 15.7659 16.7619 17.1293C15.2381 15.4451 12.9925 14.3223 10.5063 14.3223C5.85463 14.3223 2.005 18.0917 2.005 22.8235C2.005 25.3097 3.04761 27.5554 4.81202 29.0792C3.36841 27.6356 2.56641 25.6305 2.56641 23.3849Z" fill="#6C0D0F"/>
<path opacity="0.67" d="M15.8797 16.3281C17.0827 17.7717 18.2055 20.0975 18.2055 22.1026C18.2055 26.7542 14.4361 30.6038 9.70424 30.6038C7.69923 30.6038 5.37342 29.481 3.92981 28.278C5.45362 30.2028 7.85963 31.4058 10.5062 31.4058C15.1579 31.4058 19.0075 27.6364 19.0075 22.9046C18.9273 20.1777 17.7243 17.8519 15.8797 16.3281Z" fill="#93908F"/>
<g opacity="0.67">
<path d="M10.9072 20.4181C10.9072 19.9369 10.5062 19.6963 9.86463 19.6963C9.14283 19.6963 8.26063 20.0973 7.45862 20.8191L6.57642 19.1349C7.69922 18.3329 8.90223 17.7715 10.1854 17.7715C11.9498 17.7715 13.2331 18.7339 13.2331 20.0973C13.2331 21.0597 12.5112 22.0221 11.5488 23.0647L9.70423 24.9093H13.6341V26.7539H6.89722V25.2301L10.1052 21.9419C10.5864 21.3805 10.9072 20.8191 10.9072 20.4181Z" fill="#8E8A88"/>
</g>
<path d="M11.6291 0.447266L7.85963 10.7129C7.69923 11.2743 8.02003 11.8357 8.66164 11.8357H9.46364L13.5539 0.447266H11.6291Z" fill="#1268C6"/>
<path d="M13.5539 0.447266L9.38345 11.7555H11.3083L15.5589 0.447266H13.5539Z" fill="#6C0D0F"/>
<path d="M15.5589 0.447266L12.3509 9.10892L11.3885 11.7555H12.7519C12.9123 11.7555 13.1529 11.6753 13.2331 11.5951C13.3133 11.5149 13.3935 11.3545 13.4737 11.2743L17.4837 0.447266L15.5589 0.447266Z" fill="#EB3723"/>
<path opacity="0.69" d="M14.5163 8.46731L13.4737 11.2743C13.3935 11.4347 13.3133 11.5149 13.2331 11.5951C13.0727 11.7555 12.9123 11.7555 12.7519 11.7555H8.58145C8.02005 11.7555 7.61904 11.1941 7.77945 10.6327L11.5489 0.447266L14.5163 8.46731Z" fill="url(#paint4_linear_721_27053)"/>
<path d="M9.14283 0.447266H7.13782L11.3082 11.7555H12.6716C12.832 11.7555 13.0726 11.6753 13.1528 11.5951L12.2706 9.10892L9.14283 0.447266Z" fill="#1268C6"/>
<path d="M5.21301 0.447266L9.38344 11.7555H11.3884L7.13782 0.447266H5.21301Z" fill="#6C0D0F"/>
<path d="M3.20801 0.447266L7.21803 11.2743C7.29823 11.5951 7.61903 11.8357 8.02004 11.8357H9.38344L5.21302 0.447266H3.20801Z" fill="#EB3723"/>
<defs>
<linearGradient id="paint0_linear_721_27053" x1="4.30114" y1="11.8372" x2="16.6509" y2="11.8372" gradientUnits="userSpaceOnUse">
<stop stop-color="#BBBBBB"/>
<stop offset="1" stop-color="white"/>
</linearGradient>
<linearGradient id="paint1_linear_721_27053" x1="15.4431" y1="27.8179" x2="4.46323" y2="16.838" gradientUnits="userSpaceOnUse">
<stop stop-color="#BBBBBB"/>
<stop offset="1" stop-color="white"/>
</linearGradient>
<linearGradient id="paint2_linear_721_27053" x1="4.74867" y1="17.1246" x2="18.0373" y2="30.4131" gradientUnits="userSpaceOnUse">
<stop stop-color="#BBBBBB"/>
<stop offset="1" stop-color="white"/>
</linearGradient>
<linearGradient id="paint3_linear_721_27053" x1="20.781" y1="33.1566" x2="0.279642" y2="12.6553" gradientUnits="userSpaceOnUse">
<stop stop-color="#BBBBBB"/>
<stop offset="1" stop-color="white"/>
</linearGradient>
<linearGradient id="paint4_linear_721_27053" x1="12.848" y1="5.84757" x2="10.883" y2="6.80195" gradientUnits="userSpaceOnUse">
<stop stop-color="white"/>
<stop offset="1" stop-color="#121E3D"/>
</linearGradient>
</defs>
</svg>
