<svg width="22" height="34" viewBox="0 0 22 34" fill="none" xmlns="http://www.w3.org/2000/svg">
<g clip-path="url(#clip0_721_26990)">
<path d="M6.84957 14.6654V12.3968C6.84957 11.2625 7.73178 10.3712 8.85458 10.3712H13.1854C14.3082 10.3712 15.1904 11.2625 15.1904 12.3968V14.6654H17.1954V12.3968C17.1954 10.1282 15.431 8.3457 13.1854 8.3457H8.85458C6.60897 8.3457 4.84456 10.1282 4.84456 12.3968V14.6654H6.84957Z" fill="url(#paint0_linear_721_26990)"/>
<path d="M11.1002 33.2178C16.9026 33.2178 21.6065 28.4658 21.6065 22.604C21.6065 16.7422 16.9026 11.9902 11.1002 11.9902C5.29775 11.9902 0.593933 16.7422 0.593933 22.604C0.593933 28.4658 5.29775 33.2178 11.1002 33.2178Z" fill="url(#paint1_linear_721_26990)"/>
<path d="M11.1002 32.6519C16.5926 32.6519 21.045 28.1538 21.045 22.6052C21.045 17.0566 16.5926 12.5586 11.1002 12.5586C5.6078 12.5586 1.15533 17.0566 1.15533 22.6052C1.15533 28.1538 5.6078 32.6519 11.1002 32.6519Z" fill="url(#paint2_linear_721_26990)"/>
<path d="M11.1002 31.1941C15.7953 31.1941 19.6014 27.349 19.6014 22.6058C19.6014 17.8627 15.7953 14.0176 11.1002 14.0176C6.40508 14.0176 2.59894 17.8627 2.59894 22.6058C2.59894 27.349 6.40508 31.1941 11.1002 31.1941Z" fill="url(#paint3_linear_721_26990)"/>
<path opacity="0.45" d="M3.16034 23.173C3.16034 18.4737 6.92977 14.5847 11.6616 14.5847C13.827 14.5847 15.832 15.476 17.3558 16.8533C15.832 15.1519 13.5864 14.0176 11.1002 14.0176C6.44856 14.0176 2.59894 17.8256 2.59894 22.6058C2.59894 25.1175 3.64154 27.3861 5.40596 28.9255C3.96235 27.4671 3.16034 25.4416 3.16034 23.173Z" fill="#6C0D0F"/>
<path opacity="0.67" d="M16.4736 16.043C17.6766 17.5014 18.7994 19.851 18.7994 21.8765C18.7994 26.5757 15.03 30.4647 10.2982 30.4647C8.29316 30.4647 5.96735 29.3304 4.52374 28.1151C6.04755 30.0596 8.45357 31.275 11.1002 31.275C15.7518 31.275 19.6014 27.467 19.6014 22.6867C19.5212 19.932 18.3182 17.5824 16.4736 16.043Z" fill="#F44B16"/>
<g opacity="0.67">
<path d="M12.7042 17.8242V27.4657H10.218V19.8497H8.37338V17.8242H12.7042Z" fill="#CC3911"/>
</g>
<path d="M12.223 0L8.45358 10.3707C8.29318 10.9379 8.61398 11.505 9.25558 11.505H10.0576L14.1478 0H12.223Z" fill="#1268C6"/>
<path d="M14.1478 0L9.97739 11.424H11.9022L16.1528 0H14.1478Z" fill="#6C0D0F"/>
<path d="M16.1528 0L12.9448 8.75029L11.9824 11.424H13.3458C13.5062 11.424 13.7468 11.343 13.827 11.262C13.9072 11.1809 13.9874 11.0189 14.0676 10.9379L18.0776 0L16.1528 0Z" fill="#EB3723"/>
<path opacity="0.69" d="M15.1102 8.10212L14.0676 10.9379C13.9874 11.0999 13.9072 11.1809 13.827 11.262C13.6666 11.424 13.5062 11.424 13.3458 11.424H9.17538C8.61398 11.424 8.21298 10.8568 8.37338 10.2897L12.1428 0L15.1102 8.10212Z" fill="url(#paint4_linear_721_26990)"/>
<path d="M9.73679 0H7.73178L11.9022 11.424H13.2656C13.426 11.424 13.6666 11.343 13.7468 11.262L12.8646 8.75029L9.73679 0Z" fill="#1268C6"/>
<path d="M5.80696 0L9.97738 11.424H11.9824L7.73177 0H5.80696Z" fill="#6C0D0F"/>
<path d="M3.80196 0L7.81198 10.9379C7.89218 11.2619 8.21298 11.505 8.61398 11.505H9.97739L5.80697 0H3.80196Z" fill="#EB3723"/>
</g>
<defs>
<linearGradient id="paint0_linear_721_26990" x1="4.89509" y1="11.5078" x2="17.2448" y2="11.5078" gradientUnits="userSpaceOnUse">
<stop stop-color="#F78614"/>
<stop offset="1" stop-color="#FFBE06"/>
</linearGradient>
<linearGradient id="paint1_linear_721_26990" x1="16.037" y1="27.6503" x2="4.94538" y2="16.671" gradientUnits="userSpaceOnUse">
<stop stop-color="#F78614"/>
<stop offset="1" stop-color="#FFBE06"/>
</linearGradient>
<linearGradient id="paint2_linear_721_26990" x1="5.3426" y1="16.8476" x2="18.7665" y2="30.1355" gradientUnits="userSpaceOnUse">
<stop stop-color="#F78614"/>
<stop offset="1" stop-color="#FFBE06"/>
</linearGradient>
<linearGradient id="paint3_linear_721_26990" x1="21.3748" y1="33.0446" x2="0.664934" y2="12.5444" gradientUnits="userSpaceOnUse">
<stop stop-color="#F78614"/>
<stop offset="1" stop-color="#FFBE06"/>
</linearGradient>
<linearGradient id="paint4_linear_721_26990" x1="13.442" y1="5.45548" x2="11.4694" y2="6.40385" gradientUnits="userSpaceOnUse">
<stop stop-color="white"/>
<stop offset="1" stop-color="#121E3D"/>
</linearGradient>
<clipPath id="clip0_721_26990">
<rect width="20.9323" height="33.2187" fill="white" transform="translate(0.593933)"/>
</clipPath>
</defs>
</svg>
