<svg width="18" height="20" viewBox="0 0 18 20" fill="none" xmlns="http://www.w3.org/2000/svg">
<path fill-rule="evenodd" clip-rule="evenodd" d="M12.4779 6.92859H16.1603C16.4195 6.92859 16.6057 6.68437 16.537 6.43445C16.1731 5.11082 14.9611 4.13836 13.5219 4.13836C12.5318 4.13836 11.6493 4.59859 11.0764 5.3168C11.6814 5.70191 12.1733 6.25793 12.4779 6.92859ZM9.62489 19.04L9.89602 19.1945C10.1425 19.3359 10.4259 19.2109 10.5397 19.0041C10.6671 18.7725 10.58 18.4814 10.3504 18.3527C10.2387 18.2901 10.1262 18.2199 10.0133 18.156C9.97543 18.4583 9.76875 18.771 9.62489 19.04ZM13.8816 9.33066L15.949 14.6634C15.9863 14.7597 16.1005 14.8095 16.1967 14.7722L17.2233 14.3742C17.3197 14.3368 17.3694 14.2227 17.3321 14.1265L15.2647 8.79375C15.2274 8.69742 15.1133 8.64769 15.0171 8.68488L13.9904 9.08289C13.8941 9.12031 13.8443 9.23445 13.8816 9.33066ZM15.109 9.56187C15.109 9.75082 14.9558 9.90398 14.7669 9.90398C14.5779 9.90398 14.4248 9.75082 14.4248 9.56187C14.4248 9.37293 14.5779 9.21976 14.7669 9.21976C14.9558 9.21976 15.109 9.37293 15.109 9.56187ZM11.2079 12.6556C10.4914 12.2472 9.74715 12.5485 8.97223 12.8622C8.15528 13.1929 7.2961 13.5405 6.55418 12.7798C7.21055 12.3779 7.84313 11.9079 8.38512 11.3602C8.59274 11.1503 8.81895 10.9521 9.06289 10.7855C10.1088 10.068 10.8792 10.3829 11.5367 10.6516C11.9114 10.8048 12.8344 11.1443 13.1875 10.7896L13.6775 10.5274L15.0616 14.0977L14.2263 14.4462C14.144 14.3524 14.0466 14.2736 13.9382 14.2118L11.2079 12.6556ZM6.01418 12.3748C5.80289 12.4982 5.74797 12.7827 5.89817 12.9756C6.96496 14.3483 8.11606 13.8823 9.2066 13.4408C9.83907 13.1848 10.4464 12.9389 10.9002 13.1976L13.6306 14.7538C13.8562 14.8824 13.9534 15.1779 13.8204 15.4077C13.6948 15.6318 13.402 15.7232 13.176 15.5939C12.5493 15.2429 11.9227 14.8916 11.2993 14.5346C11.1497 14.449 10.9589 14.5009 10.8733 14.6506C10.7877 14.8003 10.8396 14.991 10.9893 15.0766C11.6142 15.4344 12.2426 15.7865 12.8709 16.1384C13.0998 16.2673 13.1889 16.5561 13.0612 16.7882C12.9386 17.0111 12.6392 17.1073 12.4151 16.9773L9.942 15.5858C9.79164 15.5015 9.60145 15.5551 9.51719 15.7054C9.43293 15.8558 9.48649 16.046 9.6368 16.1302C10.3097 16.5089 10.981 16.8937 11.6539 17.271C11.7625 17.3538 11.8495 17.442 11.8838 17.5602C11.9574 17.8137 11.8115 18.0757 11.5587 18.1493C11.442 18.1833 11.3127 18.1732 11.1988 18.1105L9.76414 17.2989C9.47844 16.9529 9.01051 16.8098 8.57879 16.9378C8.397 16.3518 7.77719 16.0183 7.18657 16.1932C7.0202 15.6572 6.48582 15.3273 5.93301 15.4178C5.87821 15.0698 5.665 14.7662 5.35293 14.5997C4.93274 14.3754 4.41559 14.4422 4.06504 14.7612C3.99621 14.4264 3.8886 14.109 3.50219 13.959C3.31918 13.888 3.13274 13.7991 2.95215 13.719L4.49426 10.2299L5.10707 10.5126C5.66696 10.8231 6.1816 10.7027 6.74082 10.5716C7.21739 10.46 7.7343 10.339 8.31504 10.5745C8.18621 10.6842 8.06184 10.8008 7.94317 10.9208C7.37422 11.4957 6.71121 11.968 6.01418 12.3748ZM2.03446 14.2512L4.3395 9.03602C4.38203 8.9398 4.33922 8.82684 4.24278 8.78422L3.23575 8.33914C3.1395 8.2966 3.02661 8.33941 2.98395 8.4359L0.67184 13.6671C0.62934 13.7633 0.672113 13.8762 0.768519 13.9189L1.76036 14.3573C1.89387 14.4076 1.97235 14.373 2.03446 14.2512ZM3.4293 9.56777C3.24055 9.55902 3.09465 9.39894 3.1034 9.21019C3.11215 9.02144 3.27227 8.87555 3.46098 8.8843C3.64973 8.89305 3.79563 9.05316 3.78688 9.24187C3.77813 9.43059 3.61801 9.57652 3.4293 9.56777ZM4.38086 15.3542L3.87957 16.2915C3.74981 16.5341 3.84207 16.8408 4.08485 16.9706C4.25578 17.062 4.47102 17.0432 4.62555 16.9273L5.2859 15.7844C5.38411 15.5488 5.28547 15.2693 5.05996 15.149C4.81731 15.0195 4.51071 15.1114 4.38086 15.3542ZM5.80653 16.1296C5.53145 16.6057 5.25082 17.0752 4.99176 17.5595C4.862 17.8021 4.95422 18.1087 5.19703 18.2386C5.44118 18.3691 5.74368 18.2759 5.87594 18.0338L6.60465 16.6218C6.64473 16.4086 6.54246 16.1868 6.35016 16.0842C6.17637 15.9914 5.96266 16.0104 5.80653 16.1296ZM7.15649 16.912L6.45684 18.2669C6.44528 18.4625 6.54582 18.6475 6.7193 18.7403C6.93274 18.8545 7.20317 18.796 7.35153 18.6052L7.99696 17.3647C8.03664 17.1521 7.9341 16.9311 7.74239 16.8288C7.55188 16.7271 7.31153 16.7624 7.15649 16.912ZM8.54969 17.6557L7.91899 18.8679C7.90121 19.0672 8.00297 19.2619 8.18016 19.3566C8.42282 19.4864 8.72946 19.3942 8.85934 19.1514L9.34 18.2526C9.46844 18.0124 9.37664 17.7027 9.13469 17.5735C8.9445 17.4719 8.70481 17.5068 8.54969 17.6557ZM9.06176 1.80234C9.93485 1.80234 10.6427 2.51012 10.6427 3.38324C10.6427 4.25633 9.93489 4.9641 9.06176 4.9641C8.18868 4.9641 7.4809 4.25629 7.4809 3.38324C7.48086 2.51016 8.18868 1.80234 9.06176 1.80234ZM6.42336 8.145C6.16414 8.145 5.97797 7.90082 6.04668 7.65086C6.41051 6.32719 7.6225 5.35473 9.06176 5.35473C10.501 5.35473 11.713 6.32715 12.0768 7.65082C12.1455 7.90074 11.9593 8.145 11.7001 8.145H6.42336ZM4.60161 0.585938C5.47469 0.585938 6.1825 1.29375 6.1825 2.16684C6.1825 3.03992 5.47473 3.74773 4.60161 3.74773C3.72848 3.74773 3.02075 3.03996 3.02075 2.16684C3.02071 1.29375 3.72848 0.585938 4.60161 0.585938ZM1.96321 6.92859H5.64563C5.95024 6.25793 6.44215 5.70191 7.04711 5.31676C6.47426 4.59855 5.59172 4.13832 4.60161 4.13832C3.16239 4.13832 1.95036 5.11078 1.58653 6.43445C1.51786 6.68437 1.70399 6.92859 1.96321 6.92859ZM13.5219 0.585938C14.395 0.585938 15.1028 1.29375 15.1028 2.16684C15.1028 3.03992 14.395 3.74773 13.5219 3.74773C12.6488 3.74773 11.941 3.03996 11.941 2.16684C11.9411 1.29375 12.6488 0.585938 13.5219 0.585938Z" fill="#CF5763"/>
</svg>
