<svg width="18" height="13" viewBox="0 0 18 13" fill="none" xmlns="http://www.w3.org/2000/svg">
<path d="M1.50001 10.666H11.5C11.7124 10.6663 11.9167 10.7476 12.0712 10.8934C12.2256 11.0392 12.3185 11.2385 12.331 11.4505C12.3434 11.6625 12.2745 11.8713 12.1381 12.0342C12.0018 12.1971 11.8084 12.3018 11.5975 12.3268L11.5 12.3327H1.50001C1.28761 12.3324 1.08332 12.2511 0.928872 12.1053C0.774426 11.9595 0.681484 11.7602 0.669036 11.5482C0.656588 11.3362 0.725575 11.1274 0.8619 10.9645C0.998225 10.8016 1.1916 10.6969 1.40251 10.6718L1.50001 10.666ZM1.50001 5.66602H16.5C16.7124 5.66625 16.9167 5.74758 17.0712 5.89339C17.2256 6.0392 17.3185 6.23848 17.331 6.45051C17.3434 6.66255 17.2745 6.87133 17.1381 7.03421C17.0018 7.19709 16.8084 7.30176 16.5975 7.32685L16.5 7.33268H1.50001C1.28761 7.33245 1.08332 7.25112 0.928872 7.10531C0.774426 6.9595 0.681484 6.76022 0.669036 6.54819C0.656588 6.33615 0.725575 6.12737 0.8619 5.96449C0.998225 5.80161 1.1916 5.69694 1.40251 5.67185L1.50001 5.66602ZM1.50001 0.666016H14C14.2124 0.666251 14.4167 0.747581 14.5712 0.893389C14.7256 1.0392 14.8185 1.23848 14.831 1.45051C14.8434 1.66255 14.7745 1.87133 14.6381 2.03421C14.5018 2.19709 14.3084 2.30176 14.0975 2.32685L14 2.33268H1.50001C1.28761 2.33245 1.08332 2.25112 0.928872 2.10531C0.774426 1.9595 0.681484 1.76022 0.669036 1.54819C0.656588 1.33615 0.725575 1.12737 0.8619 0.964489C0.998225 0.801611 1.1916 0.696935 1.40251 0.671849L1.50001 0.666016Z" fill="#CF5763"/>
</svg>
