<svg width="18" height="16" viewBox="0 0 18 16" fill="none" xmlns="http://www.w3.org/2000/svg">
<path d="M14.8334 8.00065C14.8334 8.46089 14.4603 8.83399 14.0001 8.83399C13.5398 8.83399 13.1667 8.46089 13.1667 8.00065C13.1667 7.54041 13.5398 7.16732 14.0001 7.16732C14.4603 7.16732 14.8334 7.54041 14.8334 8.00065Z" fill="#CF5763"/>
<path fill-rule="evenodd" clip-rule="evenodd" d="M7.2864 0.708985H9.88043C11.4119 0.708971 12.6249 0.708961 13.5743 0.836597C14.5513 0.967954 15.3421 1.24472 15.9657 1.86835C16.736 2.63868 16.9815 3.67034 17.0706 5.00905C17.5517 5.22073 17.9149 5.6684 17.9549 6.23548C17.9585 6.28564 17.9585 6.33971 17.9584 6.38983C17.9584 6.3944 17.9584 6.39893 17.9584 6.40343V9.59787C17.9584 9.60237 17.9584 9.60691 17.9584 9.61148C17.9585 9.6616 17.9585 9.71566 17.9549 9.76583C17.9149 10.3329 17.5517 10.7806 17.0706 10.9923C16.9815 12.331 16.736 13.3626 15.9657 14.1329C15.3421 14.7566 14.5513 15.0333 13.5743 15.1647C12.6249 15.2923 11.4119 15.2923 9.88042 15.2923H7.28641C5.75494 15.2923 4.54191 15.2923 3.59256 15.1647C2.61554 15.0333 1.82475 14.7566 1.20112 14.133C0.577482 13.5093 0.300717 12.7185 0.169361 11.7415C0.0417246 10.7922 0.0417351 9.57913 0.0417483 8.04767V7.95364C0.0417351 6.42217 0.0417246 5.20914 0.169361 4.2598C0.300717 3.28278 0.577482 2.49199 1.20112 1.86835C1.82475 1.24472 2.61554 0.967954 3.59256 0.836597C4.54191 0.708961 5.75493 0.708971 7.2864 0.708985ZM15.8067 11.1257H14.1924C12.4047 11.1257 10.8751 9.76935 10.8751 8.00065C10.8751 6.23195 12.4047 4.87565 14.1924 4.87565H15.8067C15.7118 3.75777 15.4973 3.16768 15.0818 2.75224C14.7292 2.39956 14.2461 2.18817 13.4077 2.07545C12.5513 1.96031 11.4224 1.95899 9.83342 1.95899H7.33341C5.7444 1.95899 4.61551 1.96031 3.75912 2.07545C2.92071 2.18817 2.43768 2.39956 2.085 2.75224C1.73233 3.10491 1.52094 3.58795 1.40821 4.42636C1.29308 5.28275 1.29175 6.41164 1.29175 8.00065C1.29175 9.58967 1.29308 10.7186 1.40821 11.5749C1.52094 12.4134 1.73233 12.8964 2.085 13.2491C2.43768 13.6017 2.92071 13.8131 3.75912 13.9259C4.61551 14.041 5.7444 14.0423 7.33342 14.0423H9.83342C11.4224 14.0423 12.5513 14.041 13.4077 13.9259C14.2461 13.8131 14.7292 13.6017 15.0818 13.2491C15.4973 12.8336 15.7118 12.2435 15.8067 11.1257ZM3.37508 4.66732C3.37508 4.32214 3.6549 4.04232 4.00008 4.04232H7.33342C7.67859 4.04232 7.95842 4.32214 7.95842 4.66732C7.95842 5.0125 7.67859 5.29232 7.33342 5.29232H4.00008C3.6549 5.29232 3.37508 5.0125 3.37508 4.66732ZM16.4364 6.12584C16.4194 6.12566 16.3972 6.12565 16.3612 6.12565H14.1924C13.0062 6.12565 12.1251 7.00793 12.1251 8.00065C12.1251 8.99337 13.0062 9.87565 14.1924 9.87565H16.3612C16.3972 9.87565 16.4194 9.87564 16.4364 9.87546C16.4467 9.87535 16.4522 9.8752 16.4548 9.87511L16.4567 9.87502C16.6285 9.86457 16.7024 9.74862 16.708 9.6789C16.708 9.6789 16.7081 9.67365 16.7082 9.66613C16.7084 9.65134 16.7084 9.63163 16.7084 9.59787V6.40343C16.7084 6.36967 16.7084 6.34996 16.7082 6.33517C16.7081 6.32764 16.708 6.3224 16.708 6.3224C16.7024 6.25267 16.6285 6.13674 16.4567 6.12628C16.4567 6.12628 16.4526 6.12601 16.4364 6.12584Z" fill="#CF5763"/>
</svg>
