<svg width="18" height="18" viewBox="0 0 18 18" fill="none" xmlns="http://www.w3.org/2000/svg">
<path fill-rule="evenodd" clip-rule="evenodd" d="M9.00008 1.29102C4.74289 1.29102 1.29175 4.74215 1.29175 8.99935C1.29175 13.2565 4.74289 16.7077 9.00008 16.7077C13.2573 16.7077 16.7084 13.2565 16.7084 8.99935C16.7084 4.74215 13.2573 1.29102 9.00008 1.29102ZM0.041748 8.99935C0.041748 4.0518 4.05253 0.0410156 9.00008 0.0410156C13.9476 0.0410156 17.9584 4.0518 17.9584 8.99935C17.9584 13.9469 13.9476 17.9577 9.00008 17.9577C4.05253 17.9577 0.041748 13.9469 0.041748 8.99935ZM9.00008 3.37435C9.34526 3.37435 9.62508 3.65417 9.62508 3.99935V4.26329C10.9838 4.50657 12.1251 5.52736 12.1251 6.91602C12.1251 7.26119 11.8453 7.54102 11.5001 7.54102C11.1549 7.54102 10.8751 7.26119 10.8751 6.91602C10.8751 6.35063 10.405 5.75218 9.62508 5.53892V8.42996C10.9838 8.67324 12.1251 9.69402 12.1251 11.0827C12.1251 12.4713 10.9838 13.4921 9.62508 13.7354V13.9993C9.62508 14.3445 9.34526 14.6243 9.00008 14.6243C8.6549 14.6243 8.37508 14.3445 8.37508 13.9993V13.7354C7.01639 13.4921 5.87508 12.4713 5.87508 11.0827C5.87508 10.7375 6.1549 10.4577 6.50008 10.4577C6.84526 10.4577 7.12508 10.7375 7.12508 11.0827C7.12508 11.6481 7.59516 12.2465 8.37508 12.4598V9.56874C7.01639 9.32546 5.87508 8.30468 5.87508 6.91602C5.87508 5.52736 7.01639 4.50657 8.37508 4.26329V3.99935C8.37508 3.65417 8.6549 3.37435 9.00008 3.37435ZM8.37508 5.53892C7.59516 5.75218 7.12508 6.35063 7.12508 6.91602C7.12508 7.4814 7.59516 8.07986 8.37508 8.29312V5.53892ZM9.62508 9.70558V12.4598C10.405 12.2465 10.8751 11.6481 10.8751 11.0827C10.8751 10.5173 10.405 9.91884 9.62508 9.70558Z" fill="#CF5763"/>
</svg>
