<svg width="18" height="18" viewBox="0 0 18 18" fill="none" xmlns="http://www.w3.org/2000/svg">
<path fill-rule="evenodd" clip-rule="evenodd" d="M8.11965 0.0410159H9.88035C11.4118 0.0410027 12.6248 0.0409922 13.5742 0.168628C14.5512 0.299985 15.342 0.576749 15.9656 1.20039C16.5893 1.82402 16.866 2.61481 16.9974 3.59183C17.125 4.54118 17.125 5.75421 17.125 7.28567V10.713C17.125 12.2445 17.125 13.4575 16.9974 14.4069C16.866 15.3839 16.5893 16.1747 15.9656 16.7983C15.342 17.4219 14.5512 17.6987 13.5742 17.8301C12.6248 17.9577 11.4118 17.9577 9.88034 17.9577H8.11966C6.58819 17.9577 5.37516 17.9577 4.42581 17.8301C3.4488 17.6987 2.65801 17.4219 2.03437 16.7983C1.41073 16.1747 1.13397 15.3839 1.00261 14.4069C0.874977 13.4575 0.874987 12.2445 0.875 10.713V7.28567C0.874987 5.7542 0.874977 4.54117 1.00261 3.59183C1.13397 2.61481 1.41073 1.82402 2.03437 1.20039C2.65801 0.576749 3.4488 0.299985 4.42581 0.168628C5.37516 0.0409922 6.58819 0.0410027 8.11965 0.0410159ZM4.59237 1.40748C3.75397 1.5202 3.27093 1.73159 2.91825 2.08427C2.56558 2.43694 2.35419 2.91998 2.24147 3.75839C2.12633 4.61478 2.125 5.74367 2.125 7.33268V10.666C2.125 12.255 2.12633 13.3839 2.24147 14.2403C2.35419 15.0787 2.56558 15.5618 2.91825 15.9144C3.27093 16.2671 3.75397 16.4785 4.59237 16.5912C5.44876 16.7064 6.57765 16.7077 8.16667 16.7077H9.83333C11.4224 16.7077 12.5512 16.7064 13.4076 16.5912C14.246 16.4785 14.7291 16.2671 15.0817 15.9144C15.4344 15.5618 15.6458 15.0787 15.7585 14.2403C15.8737 13.3839 15.875 12.255 15.875 10.666V7.33268C15.875 5.74367 15.8737 4.61478 15.7585 3.75839C15.6458 2.91998 15.4344 2.43694 15.0817 2.08427C14.7291 1.73159 14.246 1.5202 13.4076 1.40748C12.5512 1.29234 11.4224 1.29102 9.83333 1.29102H8.16667C6.57765 1.29102 5.44876 1.29234 4.59237 1.40748ZM5.04167 5.66602C5.04167 5.32084 5.32149 5.04102 5.66667 5.04102H12.3333C12.6785 5.04102 12.9583 5.32084 12.9583 5.66602C12.9583 6.01119 12.6785 6.29102 12.3333 6.29102H5.66667C5.32149 6.29102 5.04167 6.01119 5.04167 5.66602ZM5.04167 8.99935C5.04167 8.65417 5.32149 8.37435 5.66667 8.37435H12.3333C12.6785 8.37435 12.9583 8.65417 12.9583 8.99935C12.9583 9.34453 12.6785 9.62435 12.3333 9.62435H5.66667C5.32149 9.62435 5.04167 9.34453 5.04167 8.99935ZM5.04167 12.3327C5.04167 11.9875 5.32149 11.7077 5.66667 11.7077H9.83333C10.1785 11.7077 10.4583 11.9875 10.4583 12.3327C10.4583 12.6779 10.1785 12.9577 9.83333 12.9577H5.66667C5.32149 12.9577 5.04167 12.6779 5.04167 12.3327Z" fill="#CF5763"/>
</svg>
