<svg width="20" height="20" viewBox="0 0 20 20" fill="none" xmlns="http://www.w3.org/2000/svg">
<g clip-path="url(#clip0_707_26604)">
<path d="M9.99992 0C4.47711 0 0 4.47723 0 9.99992C0 14.2365 2.63574 17.8582 6.35574 19.3152C6.26824 18.524 6.1893 17.3072 6.39047 16.4434C6.57211 15.663 7.56305 11.4728 7.56305 11.4728C7.56305 11.4728 7.26387 10.8738 7.26387 9.98809C7.26387 8.59762 8.06981 7.55953 9.07336 7.55953C9.92645 7.55953 10.3386 8.20012 10.3386 8.96816C10.3386 9.82621 9.79238 11.1089 9.51039 12.2977C9.27484 13.293 10.0096 14.1047 10.9912 14.1047C12.7687 14.1047 14.1348 12.2307 14.1348 9.52547C14.1348 7.13121 12.4143 5.45715 9.95781 5.45715C7.11246 5.45715 5.4423 7.59129 5.4423 9.7968C5.4423 10.6563 5.77336 11.5779 6.18652 12.0789C6.26816 12.1779 6.2802 12.2647 6.2559 12.3657C6.17992 12.6816 6.01129 13.3608 5.97812 13.4998C5.93449 13.6828 5.83316 13.7217 5.64371 13.6335C4.39473 13.0521 3.61391 11.2262 3.61391 9.75953C3.61391 6.60504 5.90578 3.70816 10.2213 3.70816C13.6902 3.70816 16.3861 6.18 16.3861 9.48355C16.3861 12.93 14.2131 15.7036 11.197 15.7036C10.1837 15.7036 9.23105 15.1771 8.90504 14.5554C8.90504 14.5554 8.40355 16.4646 8.28199 16.9325C8.05613 17.8012 7.44676 18.8899 7.0391 19.554C7.97484 19.8438 8.96914 20 9.99992 20C15.5229 20 20 15.5229 20 9.99992C20 4.47723 15.5229 0 9.99992 0Z" fill="#CF5763"/>
</g>
<defs>
<clipPath id="clip0_707_26604">
<rect width="20" height="20" fill="white"/>
</clipPath>
</defs>
</svg>
