<svg width="15" height="15" viewBox="0 0 15 15" fill="none" xmlns="http://www.w3.org/2000/svg">
<path d="M13.825 1.17539C13 0.350391 11.575 0.350391 10.675 1.17539L4.60005 7.10039C4.07505 7.62539 3.70005 8.30039 3.55005 9.05039L3.25005 10.7004C3.17505 10.9254 3.25005 11.2254 3.47505 11.3754C3.62505 11.5254 3.77505 11.6004 4.00005 11.6004H4.15005L5.80005 11.3004C6.55005 11.1504 7.22505 10.7754 7.75005 10.2504L13.825 4.25039C14.275 3.87539 14.5 3.27539 14.5 2.67539C14.5 2.07539 14.275 1.55039 13.825 1.17539ZM6.77505 9.12539C6.47505 9.42539 6.02505 9.65039 5.57505 9.72539L4.97505 9.87539L5.12505 9.35039C5.20005 8.90039 5.42505 8.52539 5.80005 8.15039L10.45 3.57539L11.5 4.55039L6.77505 9.12539ZM12.775 3.20039L12.475 3.50039L11.425 2.52539L11.725 2.22539C11.875 2.07539 12.1 2.00039 12.25 2.00039C12.475 2.00039 12.625 2.07539 12.775 2.22539C12.925 2.37539 13 2.52539 13 2.67539C13 2.82539 13 3.05039 12.775 3.20039Z" fill="white"/>
<path d="M13 6.425C12.55 6.425 12.25 6.725 12.25 7.175V11C12.25 12.275 11.275 13.25 10 13.25H4C2.725 13.25 1.75 12.275 1.75 11V5C1.75 3.725 2.725 2.75 4 2.75H7.75C8.2 2.75 8.5 2.45 8.5 2C8.5 1.55 8.2 1.25 7.75 1.25H4C1.9 1.25 0.25 2.9 0.25 5V11C0.25 13.1 1.9 14.75 4 14.75H10C12.1 14.75 13.75 13.1 13.75 11V7.175C13.75 6.8 13.45 6.425 13 6.425Z" fill="white"/>
</svg>
