<svg width="14" height="15" viewBox="0 0 14 15" fill="none" xmlns="http://www.w3.org/2000/svg">
<path d="M10.8751 10.0681C10.5417 10.0685 10.2121 10.1393 9.90796 10.2758C9.6038 10.4124 9.33191 10.6117 9.11011 10.8606L5.29761 8.3981C5.43116 8.09743 5.50017 7.77209 5.50017 7.4431C5.50017 7.1141 5.43116 6.78877 5.29761 6.4881L9.11011 4.0256C9.48097 4.43683 9.98413 4.70521 10.5322 4.78416C11.0803 4.8631 11.6388 4.74762 12.1106 4.45776C12.5825 4.16791 12.9379 3.72198 13.1153 3.19738C13.2926 2.67279 13.2807 2.10265 13.0815 1.58594C12.8823 1.06924 12.5085 0.638593 12.0249 0.36876C11.5414 0.0989274 10.9786 0.00694684 10.4342 0.108786C9.88993 0.210625 9.39846 0.499853 9.04515 0.926262C8.69184 1.35267 8.499 1.88934 8.50011 2.4431C8.49979 2.77212 8.56879 3.09752 8.70261 3.3981L4.89011 5.8606C4.56955 5.50186 4.1476 5.24894 3.68012 5.1353C3.21264 5.02167 2.72167 5.05268 2.27221 5.22424C1.82275 5.3958 1.43598 5.69981 1.16311 6.09603C0.890245 6.49226 0.744141 6.96201 0.744141 7.4431C0.744141 7.92419 0.890245 8.39394 1.16311 8.79016C1.43598 9.18639 1.82275 9.4904 2.27221 9.66196C2.72167 9.83352 3.21264 9.86453 3.68012 9.7509C4.1476 9.63726 4.56955 9.38434 4.89011 9.0256L8.70261 11.4881C8.56879 11.7887 8.49979 12.1141 8.50011 12.4431C8.50011 12.9128 8.6394 13.372 8.90037 13.7626C9.16133 14.1531 9.53226 14.4576 9.96623 14.6373C10.4002 14.8171 10.8777 14.8641 11.3384 14.7725C11.7992 14.6808 12.2223 14.4546 12.5545 14.1225C12.8866 13.7903 13.1128 13.3671 13.2045 12.9064C13.2961 12.4457 13.2491 11.9682 13.0693 11.5342C12.8896 11.1003 12.5852 10.7293 12.1946 10.4684C11.804 10.2074 11.3448 10.0681 10.8751 10.0681Z" fill="#CF5763"/>
</svg>
