<svg width="12" height="12" viewBox="0 0 12 12" fill="none" xmlns="http://www.w3.org/2000/svg">
<path d="M6.65329 8.92955L4.20387 7.59372C3.88409 7.93559 3.46886 8.17337 3.01217 8.27615C2.55547 8.37894 2.07841 8.34198 1.64299 8.17008C1.20758 7.99817 0.833934 7.69928 0.570622 7.31223C0.30731 6.92518 0.166504 6.46788 0.166504 5.99976C0.166504 5.53164 0.30731 5.07434 0.570622 4.68729C0.833934 4.30025 1.20758 4.00135 1.64299 3.82945C2.07841 3.65754 2.55547 3.62058 3.01217 3.72337C3.46886 3.82615 3.88409 4.06393 4.20387 4.4058L6.65387 3.06997C6.51499 2.51928 6.58171 1.93684 6.84154 1.43183C7.10138 0.926825 7.53648 0.533919 8.06528 0.326767C8.59409 0.119615 9.18029 0.112441 9.71401 0.306588C10.2477 0.500735 10.6923 0.882875 10.9644 1.38137C11.2365 1.87987 11.3175 2.4605 11.1921 3.01442C11.0668 3.56835 10.7437 4.05753 10.2834 4.39027C9.82317 4.72301 9.25737 4.87647 8.69206 4.82188C8.12676 4.76728 7.60078 4.50839 7.21271 4.09372L4.76271 5.42955C4.85674 5.80368 4.85674 6.19526 4.76271 6.56939L7.21271 7.90522C7.60098 7.49076 8.12707 7.23212 8.69239 7.17781C9.25771 7.12349 9.82343 7.27721 10.2835 7.61016C10.7436 7.94312 11.0665 8.43244 11.1916 8.9864C11.3167 9.54037 11.2355 10.1209 10.9631 10.6193C10.6908 11.1177 10.2461 11.4996 9.71228 11.6935C9.17849 11.8875 8.59231 11.88 8.0636 11.6727C7.53489 11.4653 7.09996 11.0722 6.84033 10.5671C6.5807 10.062 6.5142 9.47959 6.65329 8.92897V8.92955ZM2.49996 7.16614C2.80938 7.16614 3.10612 7.04322 3.32492 6.82443C3.54371 6.60563 3.66662 6.30889 3.66662 5.99947C3.66662 5.69005 3.54371 5.3933 3.32492 5.17451C3.10612 4.95572 2.80938 4.8328 2.49996 4.8328C2.19054 4.8328 1.89379 4.95572 1.675 5.17451C1.45621 5.3933 1.33329 5.69005 1.33329 5.99947C1.33329 6.30889 1.45621 6.60563 1.675 6.82443C1.89379 7.04322 2.19054 7.16614 2.49996 7.16614ZM8.91662 3.66614C9.22604 3.66614 9.52279 3.54322 9.74158 3.32443C9.96037 3.10563 10.0833 2.80889 10.0833 2.49947C10.0833 2.19005 9.96037 1.8933 9.74158 1.67451C9.52279 1.45572 9.22604 1.3328 8.91662 1.3328C8.6072 1.3328 8.31046 1.45572 8.09167 1.67451C7.87287 1.8933 7.74996 2.19005 7.74996 2.49947C7.74996 2.80889 7.87287 3.10563 8.09167 3.32443C8.31046 3.54322 8.6072 3.66614 8.91662 3.66614ZM8.91662 10.6661C9.22604 10.6661 9.52279 10.5432 9.74158 10.3244C9.96037 10.1056 10.0833 9.80889 10.0833 9.49947C10.0833 9.19005 9.96037 8.8933 9.74158 8.67451C9.52279 8.45572 9.22604 8.3328 8.91662 8.3328C8.6072 8.3328 8.31046 8.45572 8.09167 8.67451C7.87287 8.8933 7.74996 9.19005 7.74996 9.49947C7.74996 9.80889 7.87287 10.1056 8.09167 10.3244C8.31046 10.5432 8.6072 10.6661 8.91662 10.6661Z" fill="#CF5763"/>
</svg>
