<svg width="18" height="18" viewBox="0 0 18 18" fill="none" xmlns="http://www.w3.org/2000/svg">
<path fill-rule="evenodd" clip-rule="evenodd" d="M0.666504 8.99935C0.666504 4.39685 4.39734 0.666016 8.99984 0.666016C13.6023 0.666016 17.3332 4.39685 17.3332 8.99935C17.3332 13.6018 13.6023 17.3327 8.99984 17.3327C4.39734 17.3327 0.666504 13.6018 0.666504 8.99935ZM9.589 5.91018C9.51161 5.83237 9.41952 5.77072 9.31809 5.7288C9.21666 5.68689 9.10792 5.66554 8.99817 5.66602C8.88898 5.66599 8.78087 5.68754 8.68004 5.72944C8.57922 5.77135 8.48767 5.83277 8.41067 5.91018C8.2535 6.06198 8.043 6.14598 7.8245 6.14408C7.60601 6.14218 7.39699 6.05454 7.24249 5.90003C7.08798 5.74552 7.00034 5.53651 6.99844 5.31802C6.99654 5.09952 7.08054 4.88902 7.23234 4.73185C7.4637 4.49981 7.73851 4.31562 8.04106 4.18979C8.34362 4.06397 8.66799 3.99897 8.99567 3.99852C9.32475 3.99787 9.6507 4.06234 9.95476 4.18819C10.2588 4.31405 10.535 4.49882 10.7673 4.73185C11.0673 5.02985 11.2866 5.3992 11.4047 5.80521C11.5228 6.21123 11.5357 6.6406 11.4423 7.05299C11.3489 7.46539 11.1523 7.84728 10.8708 8.16281C10.5893 8.47835 10.2323 8.71717 9.83317 8.85685L9.834 8.99602C9.83489 9.21703 9.74794 9.42934 9.59228 9.58625C9.43663 9.74315 9.22502 9.8318 9.004 9.83268C8.78299 9.83357 8.57068 9.74662 8.41377 9.59096C8.25687 9.43531 8.16822 9.2237 8.16734 9.00268L8.164 8.16935C8.16356 8.05956 8.18482 7.95077 8.22656 7.84923C8.26829 7.74769 8.32968 7.65539 8.40719 7.57764C8.48471 7.4999 8.57682 7.43823 8.67824 7.39619C8.77966 7.35416 8.88838 7.33257 8.99817 7.33268C9.10806 7.33326 9.21696 7.31198 9.31854 7.27006C9.42012 7.22814 9.51234 7.16643 9.58984 7.08852C9.6673 7.01125 9.72868 6.9194 9.77045 6.81828C9.81221 6.71715 9.83353 6.60876 9.83317 6.49935C9.83342 6.38988 9.81197 6.28145 9.77006 6.18033C9.72815 6.0792 9.66661 5.98738 9.589 5.91018ZM7.74984 12.3327C7.74984 12.0012 7.88153 11.6832 8.11595 11.4488C8.35037 11.2144 8.66832 11.0827 8.99984 11.0827H9.00817C9.33969 11.0827 9.65763 11.2144 9.89205 11.4488C10.1265 11.6832 10.2582 12.0012 10.2582 12.3327V12.341C10.2582 12.6725 10.1265 12.9905 9.89205 13.2249C9.65763 13.4593 9.33969 13.591 9.00817 13.591H8.99984C8.66832 13.591 8.35037 13.4593 8.11595 13.2249C7.88153 12.9905 7.74984 12.6725 7.74984 12.341V12.3327Z" fill="#BDBDBD"/>
</svg>
