<svg width="16" height="16" viewBox="0 0 16 16" fill="none" xmlns="http://www.w3.org/2000/svg">
<path fill-rule="evenodd" clip-rule="evenodd" d="M11.3333 3.33398V2.66732C11.3333 2.3137 11.1929 1.97456 10.9428 1.72451C10.6928 1.47446 10.3536 1.33398 10 1.33398H6C5.64638 1.33398 5.30724 1.47446 5.05719 1.72451C4.80714 1.97456 4.66667 2.3137 4.66667 2.66732V3.33398H2.66667C2.48986 3.33398 2.32029 3.40422 2.19526 3.52925C2.07024 3.65427 2 3.82384 2 4.00065C2 4.17746 2.07024 4.34703 2.19526 4.47206C2.32029 4.59708 2.48986 4.66732 2.66667 4.66732H3.33333V12.0007C3.33333 12.5311 3.54405 13.0398 3.91912 13.4149C4.29419 13.7899 4.8029 14.0007 5.33333 14.0007H10.6667C11.1971 14.0007 11.7058 13.7899 12.0809 13.4149C12.456 13.0398 12.6667 12.5311 12.6667 12.0007V4.66732H13.3333C13.5101 4.66732 13.6797 4.59708 13.8047 4.47206C13.9298 4.34703 14 4.17746 14 4.00065C14 3.82384 13.9298 3.65427 13.8047 3.52925C13.6797 3.40422 13.5101 3.33398 13.3333 3.33398H11.3333ZM10 2.66732H6V3.33398H10V2.66732ZM11.3333 4.66732H4.66667V12.0007C4.66667 12.1775 4.7369 12.347 4.86193 12.4721C4.98695 12.5971 5.15652 12.6673 5.33333 12.6673H10.6667C10.8435 12.6673 11.013 12.5971 11.1381 12.4721C11.2631 12.347 11.3333 12.1775 11.3333 12.0007V4.66732Z" fill="#B2B2B2"/>
<path d="M6 6H7.33333V11.3333H6V6ZM8.66667 6H10V11.3333H8.66667V6Z" fill="#B2B2B2"/>
</svg>
