<svg width="20" height="20" viewBox="0 0 20 20" fill="none" xmlns="http://www.w3.org/2000/svg">
<path fill-rule="evenodd" clip-rule="evenodd" d="M20 10C20 15.5228 15.5228 20 10 20C4.47715 20 0 15.5228 0 10C0 4.47715 4.47715 0 10 0C15.5228 0 20 4.47715 20 10ZM15.3818 8.25806C15.3818 11.721 12.7452 15.7167 7.92318 15.7167C6.4445 15.7167 5.06369 15.2818 3.91663 14.5316C4.12321 14.5587 4.32978 14.5696 4.5418 14.5696C5.7704 14.5696 6.90115 14.151 7.79814 13.4497C6.65108 13.428 5.68342 12.6723 5.35181 11.6286C5.5149 11.6612 5.67799 11.6775 5.84651 11.6775C6.08571 11.6775 6.31947 11.6449 6.53692 11.5851C5.3355 11.3404 4.43307 10.2858 4.43307 9.01371V8.98109C4.78643 9.1768 5.18872 9.2964 5.61819 9.30727C4.91147 8.83975 4.44938 8.03518 4.44938 7.12731C4.44938 6.64892 4.57985 6.19771 4.80274 5.81173C6.09658 7.39913 8.02647 8.4429 10.2064 8.55162C10.1575 8.36135 10.1358 8.16021 10.1358 7.95363C10.1358 6.50758 11.31 5.33333 12.7561 5.33333C13.5117 5.33333 14.1912 5.64864 14.6696 6.15965C15.2676 6.04005 15.8276 5.8226 16.3331 5.5236C16.1374 6.13791 15.7243 6.64892 15.1806 6.9751C15.7134 6.90986 16.219 6.76852 16.6865 6.56194C16.3331 7.08926 15.8874 7.55135 15.3763 7.92101C15.3818 8.02974 15.3818 8.1439 15.3818 8.25806Z" fill="#CF5763"/>
</svg>
