<svg width="16" height="12" viewBox="0 0 16 12" fill="none" xmlns="http://www.w3.org/2000/svg">
<path d="M7.33317 11.3327H4.33317C3.32206 11.3327 2.45806 10.9827 1.74117 10.2827C1.02428 9.58268 0.66606 8.72713 0.666504 7.71602C0.666504 6.84935 0.927615 6.07713 1.44984 5.39935C1.97206 4.72157 2.65539 4.28824 3.49984 4.09935C3.77762 3.07713 4.33317 2.24935 5.1665 1.61602C5.99984 0.982682 6.94428 0.666016 7.99984 0.666016C9.29984 0.666016 10.4027 1.1189 11.3085 2.02468C12.2143 2.93046 12.6669 4.03313 12.6665 5.33268C13.4332 5.42157 14.0694 5.75224 14.5752 6.32468C15.0809 6.89713 15.3336 7.56646 15.3332 8.33268C15.3332 9.16602 15.0414 9.87446 14.4578 10.458C13.8743 11.0416 13.1661 11.3331 12.3332 11.3327H8.6665V6.56602L9.73317 7.59935L10.6665 6.66602L7.99984 3.99935L5.33317 6.66602L6.2665 7.59935L7.33317 6.56602V11.3327Z" fill="#486284"/>
</svg>
