<svg width="30" height="30" viewBox="0 0 30 30" fill="none" xmlns="http://www.w3.org/2000/svg">
<path d="M23.75 15C23.75 15.6904 23.1904 16.25 22.5 16.25C21.8096 16.25 21.25 15.6904 21.25 15C21.25 14.3096 21.8096 13.75 22.5 13.75C23.1904 13.75 23.75 14.3096 23.75 15Z" fill="#CF5763"/>
<path fill-rule="evenodd" clip-rule="evenodd" d="M12.4295 4.0625H16.3205C18.6177 4.06248 20.4373 4.06246 21.8613 4.25392C23.3268 4.45095 24.513 4.8661 25.4484 5.80155C26.6039 6.95704 26.9721 8.50454 27.1058 10.5126C27.8274 10.8301 28.3722 11.5016 28.4323 12.3522C28.4376 12.4275 28.4376 12.5086 28.4375 12.5838C28.4375 12.5906 28.4375 12.5974 28.4375 12.6042V17.3958C28.4375 17.4026 28.4375 17.4094 28.4375 17.4162C28.4376 17.4914 28.4376 17.5725 28.4323 17.6478C28.3722 18.4984 27.8274 19.1699 27.1058 19.4874C26.9722 21.4955 26.6039 23.043 25.4484 24.1984C24.513 25.1339 23.3268 25.549 21.8613 25.7461C20.4373 25.9375 18.6177 25.9375 16.3205 25.9375H12.4295C10.1323 25.9375 8.31274 25.9375 6.88872 25.7461C5.42319 25.549 4.23701 25.1339 3.30155 24.1984C2.3661 23.263 1.95095 22.0768 1.75392 20.6113C1.56246 19.1873 1.56248 17.3677 1.5625 15.0705V14.9295C1.56248 12.6323 1.56246 10.8127 1.75392 9.38872C1.95095 7.9232 2.3661 6.73701 3.30155 5.80155C4.23701 4.8661 5.42319 4.45095 6.88872 4.25392C8.31274 4.06246 10.1323 4.06248 12.4295 4.0625ZM25.2099 19.6875H22.7885C20.107 19.6875 17.8125 17.6531 17.8125 15C17.8125 12.3469 20.107 10.3125 22.7885 10.3125H25.2099C25.0676 8.63568 24.7458 7.75054 24.1226 7.12738C23.5936 6.59837 22.8691 6.28128 21.6114 6.1122C20.3269 5.93949 18.6335 5.9375 16.25 5.9375H12.5C10.1165 5.9375 8.42314 5.93949 7.13856 6.1122C5.88095 6.28128 5.15639 6.59837 4.62738 7.12738C4.09837 7.65639 3.78128 8.38095 3.6122 9.63856C3.43949 10.9231 3.4375 12.6165 3.4375 15C3.4375 17.3835 3.43949 19.0769 3.6122 20.3614C3.78128 21.6191 4.09837 22.3436 4.62738 22.8726C5.15639 23.4016 5.88095 23.7187 7.13856 23.8878C8.42314 24.0605 10.1165 24.0625 12.5 24.0625H16.25C18.6335 24.0625 20.3269 24.0605 21.6114 23.8878C22.8691 23.7187 23.5936 23.4016 24.1226 22.8726C24.7458 22.2495 25.0676 21.3643 25.2099 19.6875ZM6.5625 10C6.5625 9.48223 6.98223 9.0625 7.5 9.0625H12.5C13.0178 9.0625 13.4375 9.48223 13.4375 10C13.4375 10.5178 13.0178 10.9375 12.5 10.9375H7.5C6.98223 10.9375 6.5625 10.5178 6.5625 10ZM26.1544 12.1878C26.129 12.1875 26.0957 12.1875 26.0417 12.1875H22.7885C21.0092 12.1875 19.6875 13.5109 19.6875 15C19.6875 16.4891 21.0092 17.8125 22.7885 17.8125H26.0417C26.0957 17.8125 26.129 17.8125 26.1544 17.8122C26.17 17.8121 26.1782 17.8118 26.1821 17.8117L26.1849 17.8116C26.4426 17.7959 26.5534 17.622 26.5618 17.5174C26.5618 17.5174 26.5621 17.5095 26.5622 17.4982C26.5625 17.476 26.5625 17.4465 26.5625 17.3958V12.6042C26.5625 12.5535 26.5625 12.524 26.5622 12.5018C26.5621 12.4905 26.5618 12.4826 26.5618 12.4826C26.5534 12.378 26.4426 12.2041 26.1849 12.1884C26.1849 12.1884 26.1788 12.188 26.1544 12.1878Z" fill="#CF5763"/>
</svg>
