<svg width="15" height="16" viewBox="0 0 15 16" fill="none" xmlns="http://www.w3.org/2000/svg">
<path d="M5.0325 4.78267L6.75 3.05767V10.2502C6.75 10.4491 6.82902 10.6398 6.96967 10.7805C7.11032 10.9211 7.30109 11.0002 7.5 11.0002C7.69891 11.0002 7.88968 10.9211 8.03033 10.7805C8.17098 10.6398 8.25 10.4491 8.25 10.2502V3.05767L9.9675 4.78267C10.0372 4.85296 10.1202 4.90876 10.2116 4.94684C10.303 4.98491 10.401 5.00452 10.5 5.00452C10.599 5.00452 10.697 4.98491 10.7884 4.94684C10.8798 4.90876 10.9628 4.85296 11.0325 4.78267C11.1028 4.71294 11.1586 4.62999 11.1967 4.5386C11.2347 4.4472 11.2543 4.34918 11.2543 4.25017C11.2543 4.15116 11.2347 4.05313 11.1967 3.96173C11.1586 3.87034 11.1028 3.78739 11.0325 3.71767L8.0325 0.717666C7.96117 0.649386 7.87706 0.595862 7.785 0.560166C7.6024 0.485153 7.3976 0.485153 7.215 0.560166C7.12294 0.595862 7.03883 0.649386 6.9675 0.717666L3.9675 3.71767C3.89757 3.7876 3.8421 3.87061 3.80426 3.96198C3.76641 4.05335 3.74693 4.15127 3.74693 4.25017C3.74693 4.34906 3.76641 4.44699 3.80426 4.53835C3.8421 4.62972 3.89757 4.71274 3.9675 4.78267C4.03743 4.8526 4.12045 4.90807 4.21181 4.94591C4.30318 4.98376 4.40111 5.00323 4.5 5.00323C4.59889 5.00323 4.69682 4.98376 4.78819 4.94591C4.87955 4.90807 4.96257 4.8526 5.0325 4.78267ZM14.25 9.50017C14.0511 9.50017 13.8603 9.57918 13.7197 9.71984C13.579 9.86049 13.5 10.0513 13.5 10.2502V13.2502C13.5 13.4491 13.421 13.6398 13.2803 13.7805C13.1397 13.9212 12.9489 14.0002 12.75 14.0002H2.25C2.05109 14.0002 1.86032 13.9212 1.71967 13.7805C1.57902 13.6398 1.5 13.4491 1.5 13.2502V10.2502C1.5 10.0513 1.42098 9.86049 1.28033 9.71984C1.13968 9.57918 0.948912 9.50017 0.75 9.50017C0.551088 9.50017 0.360322 9.57918 0.21967 9.71984C0.0790176 9.86049 0 10.0513 0 10.2502V13.2502C0 13.8469 0.237053 14.4192 0.65901 14.8412C1.08097 15.2631 1.65326 15.5002 2.25 15.5002H12.75C13.3467 15.5002 13.919 15.2631 14.341 14.8412C14.7629 14.4192 15 13.8469 15 13.2502V10.2502C15 10.0513 14.921 9.86049 14.7803 9.71984C14.6397 9.57918 14.4489 9.50017 14.25 9.50017Z" fill="#CF5763"/>
</svg>
